<?xml version="1.0" encoding="utf-8" standalone="no"?>
<!DOCTYPE svg PUBLIC "-//W3C//DTD SVG 1.1//EN"
  "http://www.w3.org/Graphics/SVG/1.1/DTD/svg11.dtd">
<svg height="345.6pt" version="1.1" viewBox="0 0 460.8 345.6" width="460.8pt" xmlns="http://www.w3.org/2000/svg" xmlns:xlink="http://www.w3.org/1999/xlink">
 <metadata>
  <rdf:RDF xmlns:cc="http://creativecommons.org/ns#" xmlns:dc="http://purl.org/dc/elements/1.1/" xmlns:rdf="http://www.w3.org/1999/02/22-rdf-syntax-ns#">
   <cc:Work>
    <dc:type rdf:resource="http://purl.org/dc/dcmitype/StillImage"/>
    <dc:date>2022-02-09T22:34:52.616019</dc:date>
    <dc:format>image/svg+xml</dc:format>
    <dc:creator>
     <cc:Agent>
      <dc:title>Matplotlib v3.4.3, https://matplotlib.org/</dc:title>
     </cc:Agent>
    </dc:creator>
   </cc:Work>
  </rdf:RDF>
 </metadata>
 <defs>
  <style type="text/css">*{stroke-linecap:butt;stroke-linejoin:round;}</style>
 </defs>
 <g id="figure_1">
  <g id="patch_1">
   <path d="M 0 345.6 
L 460.8 345.6 
L 460.8 0 
L 0 0 
z
" style="fill:#ffffff;"/>
  </g>
  <g id="axes_1">
   <g id="patch_2">
    <path d="M 57.6 307.584 
L 414.72 307.584 
L 414.72 41.472 
L 57.6 41.472 
z
" style="fill:#eaeaf2;"/>
   </g>
   <g id="matplotlib.axis_1">
    <g id="xtick_1">
     <g id="line2d_1">
      <path clip-path="url(#p177a5552c1)" d="M 73.832727 307.584 
L 73.832727 41.472 
" style="fill:none;stroke:#ffffff;stroke-linecap:round;"/>
     </g>
     <g id="text_1">
      <!-- 0 -->
      <g style="fill:#262626;" transform="translate(70.333352 325.442281)scale(0.11 -0.11)">
       <defs>
        <path d="M 2034 4250 
Q 1547 4250 1301 3770 
Q 1056 3291 1056 2328 
Q 1056 1369 1301 889 
Q 1547 409 2034 409 
Q 2525 409 2770 889 
Q 3016 1369 3016 2328 
Q 3016 3291 2770 3770 
Q 2525 4250 2034 4250 
z
M 2034 4750 
Q 2819 4750 3233 4129 
Q 3647 3509 3647 2328 
Q 3647 1150 3233 529 
Q 2819 -91 2034 -91 
Q 1250 -91 836 529 
Q 422 1150 422 2328 
Q 422 3509 836 4129 
Q 1250 4750 2034 4750 
z
" id="DejaVuSans-30" transform="scale(0.015625)"/>
       </defs>
       <use xlink:href="#DejaVuSans-30"/>
      </g>
     </g>
    </g>
    <g id="xtick_2">
     <g id="line2d_2">
      <path clip-path="url(#p177a5552c1)" d="M 140.088757 307.584 
L 140.088757 41.472 
" style="fill:none;stroke:#ffffff;stroke-linecap:round;"/>
     </g>
     <g id="text_2">
      <!-- 10 -->
      <g style="fill:#262626;" transform="translate(133.090007 325.442281)scale(0.11 -0.11)">
       <defs>
        <path d="M 794 531 
L 1825 531 
L 1825 4091 
L 703 3866 
L 703 4441 
L 1819 4666 
L 2450 4666 
L 2450 531 
L 3481 531 
L 3481 0 
L 794 0 
L 794 531 
z
" id="DejaVuSans-31" transform="scale(0.015625)"/>
       </defs>
       <use xlink:href="#DejaVuSans-31"/>
       <use x="63.623047" xlink:href="#DejaVuSans-30"/>
      </g>
     </g>
    </g>
    <g id="xtick_3">
     <g id="line2d_3">
      <path clip-path="url(#p177a5552c1)" d="M 206.344787 307.584 
L 206.344787 41.472 
" style="fill:none;stroke:#ffffff;stroke-linecap:round;"/>
     </g>
     <g id="text_3">
      <!-- 20 -->
      <g style="fill:#262626;" transform="translate(199.346037 325.442281)scale(0.11 -0.11)">
       <defs>
        <path d="M 1228 531 
L 3431 531 
L 3431 0 
L 469 0 
L 469 531 
Q 828 903 1448 1529 
Q 2069 2156 2228 2338 
Q 2531 2678 2651 2914 
Q 2772 3150 2772 3378 
Q 2772 3750 2511 3984 
Q 2250 4219 1831 4219 
Q 1534 4219 1204 4116 
Q 875 4013 500 3803 
L 500 4441 
Q 881 4594 1212 4672 
Q 1544 4750 1819 4750 
Q 2544 4750 2975 4387 
Q 3406 4025 3406 3419 
Q 3406 3131 3298 2873 
Q 3191 2616 2906 2266 
Q 2828 2175 2409 1742 
Q 1991 1309 1228 531 
z
" id="DejaVuSans-32" transform="scale(0.015625)"/>
       </defs>
       <use xlink:href="#DejaVuSans-32"/>
       <use x="63.623047" xlink:href="#DejaVuSans-30"/>
      </g>
     </g>
    </g>
    <g id="xtick_4">
     <g id="line2d_4">
      <path clip-path="url(#p177a5552c1)" d="M 272.600816 307.584 
L 272.600816 41.472 
" style="fill:none;stroke:#ffffff;stroke-linecap:round;"/>
     </g>
     <g id="text_4">
      <!-- 30 -->
      <g style="fill:#262626;" transform="translate(265.602066 325.442281)scale(0.11 -0.11)">
       <defs>
        <path d="M 2597 2516 
Q 3050 2419 3304 2112 
Q 3559 1806 3559 1356 
Q 3559 666 3084 287 
Q 2609 -91 1734 -91 
Q 1441 -91 1130 -33 
Q 819 25 488 141 
L 488 750 
Q 750 597 1062 519 
Q 1375 441 1716 441 
Q 2309 441 2620 675 
Q 2931 909 2931 1356 
Q 2931 1769 2642 2001 
Q 2353 2234 1838 2234 
L 1294 2234 
L 1294 2753 
L 1863 2753 
Q 2328 2753 2575 2939 
Q 2822 3125 2822 3475 
Q 2822 3834 2567 4026 
Q 2313 4219 1838 4219 
Q 1578 4219 1281 4162 
Q 984 4106 628 3988 
L 628 4550 
Q 988 4650 1302 4700 
Q 1616 4750 1894 4750 
Q 2613 4750 3031 4423 
Q 3450 4097 3450 3541 
Q 3450 3153 3228 2886 
Q 3006 2619 2597 2516 
z
" id="DejaVuSans-33" transform="scale(0.015625)"/>
       </defs>
       <use xlink:href="#DejaVuSans-33"/>
       <use x="63.623047" xlink:href="#DejaVuSans-30"/>
      </g>
     </g>
    </g>
    <g id="xtick_5">
     <g id="line2d_5">
      <path clip-path="url(#p177a5552c1)" d="M 338.856846 307.584 
L 338.856846 41.472 
" style="fill:none;stroke:#ffffff;stroke-linecap:round;"/>
     </g>
     <g id="text_5">
      <!-- 40 -->
      <g style="fill:#262626;" transform="translate(331.858096 325.442281)scale(0.11 -0.11)">
       <defs>
        <path d="M 2419 4116 
L 825 1625 
L 2419 1625 
L 2419 4116 
z
M 2253 4666 
L 3047 4666 
L 3047 1625 
L 3713 1625 
L 3713 1100 
L 3047 1100 
L 3047 0 
L 2419 0 
L 2419 1100 
L 313 1100 
L 313 1709 
L 2253 4666 
z
" id="DejaVuSans-34" transform="scale(0.015625)"/>
       </defs>
       <use xlink:href="#DejaVuSans-34"/>
       <use x="63.623047" xlink:href="#DejaVuSans-30"/>
      </g>
     </g>
    </g>
    <g id="xtick_6">
     <g id="line2d_6">
      <path clip-path="url(#p177a5552c1)" d="M 405.112876 307.584 
L 405.112876 41.472 
" style="fill:none;stroke:#ffffff;stroke-linecap:round;"/>
     </g>
     <g id="text_6">
      <!-- 50 -->
      <g style="fill:#262626;" transform="translate(398.114126 325.442281)scale(0.11 -0.11)">
       <defs>
        <path d="M 691 4666 
L 3169 4666 
L 3169 4134 
L 1269 4134 
L 1269 2991 
Q 1406 3038 1543 3061 
Q 1681 3084 1819 3084 
Q 2600 3084 3056 2656 
Q 3513 2228 3513 1497 
Q 3513 744 3044 326 
Q 2575 -91 1722 -91 
Q 1428 -91 1123 -41 
Q 819 9 494 109 
L 494 744 
Q 775 591 1075 516 
Q 1375 441 1709 441 
Q 2250 441 2565 725 
Q 2881 1009 2881 1497 
Q 2881 1984 2565 2268 
Q 2250 2553 1709 2553 
Q 1456 2553 1204 2497 
Q 953 2441 691 2322 
L 691 4666 
z
" id="DejaVuSans-35" transform="scale(0.015625)"/>
       </defs>
       <use xlink:href="#DejaVuSans-35"/>
       <use x="63.623047" xlink:href="#DejaVuSans-30"/>
      </g>
     </g>
    </g>
    <g id="text_7">
     <!-- Time Steps -->
     <g style="fill:#262626;" transform="translate(202.785 340.848062)scale(0.12 -0.12)">
      <defs>
       <path d="M -19 4666 
L 3928 4666 
L 3928 4134 
L 2272 4134 
L 2272 0 
L 1638 0 
L 1638 4134 
L -19 4134 
L -19 4666 
z
" id="DejaVuSans-54" transform="scale(0.015625)"/>
       <path d="M 603 3500 
L 1178 3500 
L 1178 0 
L 603 0 
L 603 3500 
z
M 603 4863 
L 1178 4863 
L 1178 4134 
L 603 4134 
L 603 4863 
z
" id="DejaVuSans-69" transform="scale(0.015625)"/>
       <path d="M 3328 2828 
Q 3544 3216 3844 3400 
Q 4144 3584 4550 3584 
Q 5097 3584 5394 3201 
Q 5691 2819 5691 2113 
L 5691 0 
L 5113 0 
L 5113 2094 
Q 5113 2597 4934 2840 
Q 4756 3084 4391 3084 
Q 3944 3084 3684 2787 
Q 3425 2491 3425 1978 
L 3425 0 
L 2847 0 
L 2847 2094 
Q 2847 2600 2669 2842 
Q 2491 3084 2119 3084 
Q 1678 3084 1418 2786 
Q 1159 2488 1159 1978 
L 1159 0 
L 581 0 
L 581 3500 
L 1159 3500 
L 1159 2956 
Q 1356 3278 1631 3431 
Q 1906 3584 2284 3584 
Q 2666 3584 2933 3390 
Q 3200 3197 3328 2828 
z
" id="DejaVuSans-6d" transform="scale(0.015625)"/>
       <path d="M 3597 1894 
L 3597 1613 
L 953 1613 
Q 991 1019 1311 708 
Q 1631 397 2203 397 
Q 2534 397 2845 478 
Q 3156 559 3463 722 
L 3463 178 
Q 3153 47 2828 -22 
Q 2503 -91 2169 -91 
Q 1331 -91 842 396 
Q 353 884 353 1716 
Q 353 2575 817 3079 
Q 1281 3584 2069 3584 
Q 2775 3584 3186 3129 
Q 3597 2675 3597 1894 
z
M 3022 2063 
Q 3016 2534 2758 2815 
Q 2500 3097 2075 3097 
Q 1594 3097 1305 2825 
Q 1016 2553 972 2059 
L 3022 2063 
z
" id="DejaVuSans-65" transform="scale(0.015625)"/>
       <path id="DejaVuSans-20" transform="scale(0.015625)"/>
       <path d="M 3425 4513 
L 3425 3897 
Q 3066 4069 2747 4153 
Q 2428 4238 2131 4238 
Q 1616 4238 1336 4038 
Q 1056 3838 1056 3469 
Q 1056 3159 1242 3001 
Q 1428 2844 1947 2747 
L 2328 2669 
Q 3034 2534 3370 2195 
Q 3706 1856 3706 1288 
Q 3706 609 3251 259 
Q 2797 -91 1919 -91 
Q 1588 -91 1214 -16 
Q 841 59 441 206 
L 441 856 
Q 825 641 1194 531 
Q 1563 422 1919 422 
Q 2459 422 2753 634 
Q 3047 847 3047 1241 
Q 3047 1584 2836 1778 
Q 2625 1972 2144 2069 
L 1759 2144 
Q 1053 2284 737 2584 
Q 422 2884 422 3419 
Q 422 4038 858 4394 
Q 1294 4750 2059 4750 
Q 2388 4750 2728 4690 
Q 3069 4631 3425 4513 
z
" id="DejaVuSans-53" transform="scale(0.015625)"/>
       <path d="M 1172 4494 
L 1172 3500 
L 2356 3500 
L 2356 3053 
L 1172 3053 
L 1172 1153 
Q 1172 725 1289 603 
Q 1406 481 1766 481 
L 2356 481 
L 2356 0 
L 1766 0 
Q 1100 0 847 248 
Q 594 497 594 1153 
L 594 3053 
L 172 3053 
L 172 3500 
L 594 3500 
L 594 4494 
L 1172 4494 
z
" id="DejaVuSans-74" transform="scale(0.015625)"/>
       <path d="M 1159 525 
L 1159 -1331 
L 581 -1331 
L 581 3500 
L 1159 3500 
L 1159 2969 
Q 1341 3281 1617 3432 
Q 1894 3584 2278 3584 
Q 2916 3584 3314 3078 
Q 3713 2572 3713 1747 
Q 3713 922 3314 415 
Q 2916 -91 2278 -91 
Q 1894 -91 1617 61 
Q 1341 213 1159 525 
z
M 3116 1747 
Q 3116 2381 2855 2742 
Q 2594 3103 2138 3103 
Q 1681 3103 1420 2742 
Q 1159 2381 1159 1747 
Q 1159 1113 1420 752 
Q 1681 391 2138 391 
Q 2594 391 2855 752 
Q 3116 1113 3116 1747 
z
" id="DejaVuSans-70" transform="scale(0.015625)"/>
       <path d="M 2834 3397 
L 2834 2853 
Q 2591 2978 2328 3040 
Q 2066 3103 1784 3103 
Q 1356 3103 1142 2972 
Q 928 2841 928 2578 
Q 928 2378 1081 2264 
Q 1234 2150 1697 2047 
L 1894 2003 
Q 2506 1872 2764 1633 
Q 3022 1394 3022 966 
Q 3022 478 2636 193 
Q 2250 -91 1575 -91 
Q 1294 -91 989 -36 
Q 684 19 347 128 
L 347 722 
Q 666 556 975 473 
Q 1284 391 1588 391 
Q 1994 391 2212 530 
Q 2431 669 2431 922 
Q 2431 1156 2273 1281 
Q 2116 1406 1581 1522 
L 1381 1569 
Q 847 1681 609 1914 
Q 372 2147 372 2553 
Q 372 3047 722 3315 
Q 1072 3584 1716 3584 
Q 2034 3584 2315 3537 
Q 2597 3491 2834 3397 
z
" id="DejaVuSans-73" transform="scale(0.015625)"/>
      </defs>
      <use xlink:href="#DejaVuSans-54"/>
      <use x="57.958984" xlink:href="#DejaVuSans-69"/>
      <use x="85.742188" xlink:href="#DejaVuSans-6d"/>
      <use x="183.154297" xlink:href="#DejaVuSans-65"/>
      <use x="244.677734" xlink:href="#DejaVuSans-20"/>
      <use x="276.464844" xlink:href="#DejaVuSans-53"/>
      <use x="339.941406" xlink:href="#DejaVuSans-74"/>
      <use x="379.150391" xlink:href="#DejaVuSans-65"/>
      <use x="440.673828" xlink:href="#DejaVuSans-70"/>
      <use x="504.150391" xlink:href="#DejaVuSans-73"/>
     </g>
    </g>
   </g>
   <g id="matplotlib.axis_2">
    <g id="ytick_1">
     <g id="line2d_7">
      <path clip-path="url(#p177a5552c1)" d="M 57.6 284.290291 
L 414.72 284.290291 
" style="fill:none;stroke:#ffffff;stroke-linecap:round;"/>
     </g>
     <g id="text_8">
      <!-- −20000 -->
      <g style="fill:#262626;" transform="translate(3.888594 288.469432)scale(0.11 -0.11)">
       <defs>
        <path d="M 678 2272 
L 4684 2272 
L 4684 1741 
L 678 1741 
L 678 2272 
z
" id="DejaVuSans-2212" transform="scale(0.015625)"/>
       </defs>
       <use xlink:href="#DejaVuSans-2212"/>
       <use x="83.789062" xlink:href="#DejaVuSans-32"/>
       <use x="147.412109" xlink:href="#DejaVuSans-30"/>
       <use x="211.035156" xlink:href="#DejaVuSans-30"/>
       <use x="274.658203" xlink:href="#DejaVuSans-30"/>
       <use x="338.28125" xlink:href="#DejaVuSans-30"/>
      </g>
     </g>
    </g>
    <g id="ytick_2">
     <g id="line2d_8">
      <path clip-path="url(#p177a5552c1)" d="M 57.6 254.639761 
L 414.72 254.639761 
" style="fill:none;stroke:#ffffff;stroke-linecap:round;"/>
     </g>
     <g id="text_9">
      <!-- −17500 -->
      <g style="fill:#262626;" transform="translate(3.888594 258.818901)scale(0.11 -0.11)">
       <defs>
        <path d="M 525 4666 
L 3525 4666 
L 3525 4397 
L 1831 0 
L 1172 0 
L 2766 4134 
L 525 4134 
L 525 4666 
z
" id="DejaVuSans-37" transform="scale(0.015625)"/>
       </defs>
       <use xlink:href="#DejaVuSans-2212"/>
       <use x="83.789062" xlink:href="#DejaVuSans-31"/>
       <use x="147.412109" xlink:href="#DejaVuSans-37"/>
       <use x="211.035156" xlink:href="#DejaVuSans-35"/>
       <use x="274.658203" xlink:href="#DejaVuSans-30"/>
       <use x="338.28125" xlink:href="#DejaVuSans-30"/>
      </g>
     </g>
    </g>
    <g id="ytick_3">
     <g id="line2d_9">
      <path clip-path="url(#p177a5552c1)" d="M 57.6 224.98923 
L 414.72 224.98923 
" style="fill:none;stroke:#ffffff;stroke-linecap:round;"/>
     </g>
     <g id="text_10">
      <!-- −15000 -->
      <g style="fill:#262626;" transform="translate(3.888594 229.16837)scale(0.11 -0.11)">
       <use xlink:href="#DejaVuSans-2212"/>
       <use x="83.789062" xlink:href="#DejaVuSans-31"/>
       <use x="147.412109" xlink:href="#DejaVuSans-35"/>
       <use x="211.035156" xlink:href="#DejaVuSans-30"/>
       <use x="274.658203" xlink:href="#DejaVuSans-30"/>
       <use x="338.28125" xlink:href="#DejaVuSans-30"/>
      </g>
     </g>
    </g>
    <g id="ytick_4">
     <g id="line2d_10">
      <path clip-path="url(#p177a5552c1)" d="M 57.6 195.338699 
L 414.72 195.338699 
" style="fill:none;stroke:#ffffff;stroke-linecap:round;"/>
     </g>
     <g id="text_11">
      <!-- −12500 -->
      <g style="fill:#262626;" transform="translate(3.888594 199.517839)scale(0.11 -0.11)">
       <use xlink:href="#DejaVuSans-2212"/>
       <use x="83.789062" xlink:href="#DejaVuSans-31"/>
       <use x="147.412109" xlink:href="#DejaVuSans-32"/>
       <use x="211.035156" xlink:href="#DejaVuSans-35"/>
       <use x="274.658203" xlink:href="#DejaVuSans-30"/>
       <use x="338.28125" xlink:href="#DejaVuSans-30"/>
      </g>
     </g>
    </g>
    <g id="ytick_5">
     <g id="line2d_11">
      <path clip-path="url(#p177a5552c1)" d="M 57.6 165.688168 
L 414.72 165.688168 
" style="fill:none;stroke:#ffffff;stroke-linecap:round;"/>
     </g>
     <g id="text_12">
      <!-- −10000 -->
      <g style="fill:#262626;" transform="translate(3.888594 169.867308)scale(0.11 -0.11)">
       <use xlink:href="#DejaVuSans-2212"/>
       <use x="83.789062" xlink:href="#DejaVuSans-31"/>
       <use x="147.412109" xlink:href="#DejaVuSans-30"/>
       <use x="211.035156" xlink:href="#DejaVuSans-30"/>
       <use x="274.658203" xlink:href="#DejaVuSans-30"/>
       <use x="338.28125" xlink:href="#DejaVuSans-30"/>
      </g>
     </g>
    </g>
    <g id="ytick_6">
     <g id="line2d_12">
      <path clip-path="url(#p177a5552c1)" d="M 57.6 136.037637 
L 414.72 136.037637 
" style="fill:none;stroke:#ffffff;stroke-linecap:round;"/>
     </g>
     <g id="text_13">
      <!-- −7500 -->
      <g style="fill:#262626;" transform="translate(10.887344 140.216777)scale(0.11 -0.11)">
       <use xlink:href="#DejaVuSans-2212"/>
       <use x="83.789062" xlink:href="#DejaVuSans-37"/>
       <use x="147.412109" xlink:href="#DejaVuSans-35"/>
       <use x="211.035156" xlink:href="#DejaVuSans-30"/>
       <use x="274.658203" xlink:href="#DejaVuSans-30"/>
      </g>
     </g>
    </g>
    <g id="ytick_7">
     <g id="line2d_13">
      <path clip-path="url(#p177a5552c1)" d="M 57.6 106.387106 
L 414.72 106.387106 
" style="fill:none;stroke:#ffffff;stroke-linecap:round;"/>
     </g>
     <g id="text_14">
      <!-- −5000 -->
      <g style="fill:#262626;" transform="translate(10.887344 110.566246)scale(0.11 -0.11)">
       <use xlink:href="#DejaVuSans-2212"/>
       <use x="83.789062" xlink:href="#DejaVuSans-35"/>
       <use x="147.412109" xlink:href="#DejaVuSans-30"/>
       <use x="211.035156" xlink:href="#DejaVuSans-30"/>
       <use x="274.658203" xlink:href="#DejaVuSans-30"/>
      </g>
     </g>
    </g>
    <g id="ytick_8">
     <g id="line2d_14">
      <path clip-path="url(#p177a5552c1)" d="M 57.6 76.736575 
L 414.72 76.736575 
" style="fill:none;stroke:#ffffff;stroke-linecap:round;"/>
     </g>
     <g id="text_15">
      <!-- −2500 -->
      <g style="fill:#262626;" transform="translate(10.887344 80.915716)scale(0.11 -0.11)">
       <use xlink:href="#DejaVuSans-2212"/>
       <use x="83.789062" xlink:href="#DejaVuSans-32"/>
       <use x="147.412109" xlink:href="#DejaVuSans-35"/>
       <use x="211.035156" xlink:href="#DejaVuSans-30"/>
       <use x="274.658203" xlink:href="#DejaVuSans-30"/>
      </g>
     </g>
    </g>
    <g id="ytick_9">
     <g id="line2d_15">
      <path clip-path="url(#p177a5552c1)" d="M 57.6 47.086044 
L 414.72 47.086044 
" style="fill:none;stroke:#ffffff;stroke-linecap:round;"/>
     </g>
     <g id="text_16">
      <!-- 0 -->
      <g style="fill:#262626;" transform="translate(41.10125 51.265185)scale(0.11 -0.11)">
       <use xlink:href="#DejaVuSans-30"/>
      </g>
     </g>
    </g>
   </g>
   <g id="PolyCollection_1">
    <defs>
     <path d="M 73.832727 -285.980488 
L 73.832727 -282.204755 
L 80.45833 -283.591152 
L 87.083933 -285.356624 
L 93.709536 -287.039617 
L 100.335139 -288.422693 
L 106.960742 -289.183725 
L 113.586345 -289.801499 
L 120.211948 -290.283035 
L 126.837551 -290.294336 
L 133.463154 -290.366784 
L 140.088757 -290.350739 
L 146.71436 -290.384826 
L 153.339963 -290.288812 
L 159.965566 -290.251378 
L 166.591169 -290.083874 
L 173.216772 -290.122507 
L 179.842375 -290.12712 
L 186.467978 -290.182186 
L 193.093581 -290.42173 
L 199.719184 -290.39773 
L 206.344787 -290.461085 
L 212.97039 -290.540597 
L 219.595993 -290.45997 
L 226.221596 -290.46039 
L 232.847199 -290.338479 
L 239.472801 -290.172108 
L 246.098404 -290.038557 
L 252.724007 -289.904769 
L 259.34961 -289.823545 
L 265.975213 -289.72384 
L 272.600816 -289.559952 
L 279.226419 -289.385411 
L 285.852022 -289.342098 
L 292.477625 -289.250647 
L 299.103228 -289.186272 
L 305.728831 -289.178659 
L 312.354434 -289.214326 
L 318.980037 -289.172157 
L 325.60564 -289.166598 
L 332.231243 -289.147611 
L 338.856846 -289.224824 
L 345.482449 -289.368365 
L 352.108052 -289.616185 
L 358.733655 -289.602269 
L 365.359258 -289.684165 
L 371.984861 -289.756252 
L 378.610464 -289.8587 
L 385.236067 -289.81532 
L 391.86167 -289.858041 
L 398.487273 -289.74659 
L 398.487273 -291.108653 
L 398.487273 -291.108653 
L 391.86167 -291.167816 
L 385.236067 -291.211615 
L 378.610464 -291.188214 
L 371.984861 -291.109851 
L 365.359258 -291.135139 
L 358.733655 -291.114204 
L 352.108052 -291.082427 
L 345.482449 -290.981665 
L 338.856846 -290.939174 
L 332.231243 -290.866213 
L 325.60564 -290.862067 
L 318.980037 -290.874152 
L 312.354434 -290.913249 
L 305.728831 -290.948688 
L 299.103228 -290.891918 
L 292.477625 -291.05219 
L 285.852022 -291.129732 
L 279.226419 -291.13261 
L 272.600816 -291.235239 
L 265.975213 -291.292892 
L 259.34961 -291.403958 
L 252.724007 -291.486512 
L 246.098404 -291.607601 
L 239.472801 -291.655203 
L 232.847199 -291.796555 
L 226.221596 -291.925787 
L 219.595993 -292.032 
L 212.97039 -292.011173 
L 206.344787 -291.917831 
L 199.719184 -291.928041 
L 193.093581 -291.90387 
L 186.467978 -291.915052 
L 179.842375 -291.802443 
L 173.216772 -291.785146 
L 166.591169 -291.852474 
L 159.965566 -291.869177 
L 153.339963 -291.942295 
L 146.71436 -291.954957 
L 140.088757 -291.863068 
L 133.463154 -291.878827 
L 126.837551 -291.745255 
L 120.211948 -291.626742 
L 113.586345 -291.205032 
L 106.960742 -290.743582 
L 100.335139 -290.117556 
L 93.709536 -289.249755 
L 87.083933 -288.208611 
L 80.45833 -287.096973 
L 73.832727 -285.980488 
z
" id="m8153b808e9" style="stroke:#4c72b0;stroke-opacity:0.2;"/>
    </defs>
    <g clip-path="url(#p177a5552c1)">
     <use style="fill:#4c72b0;fill-opacity:0.2;stroke:#4c72b0;stroke-opacity:0.2;" x="0" xlink:href="#m8153b808e9" y="345.6"/>
    </g>
   </g>
   <g id="PolyCollection_2">
    <defs>
     <path d="M 73.832727 -283.797233 
L 73.832727 -278.434434 
L 80.45833 -280.780028 
L 87.083933 -283.278733 
L 93.709536 -285.480489 
L 100.335139 -287.1482 
L 106.960742 -288.401059 
L 113.586345 -289.022186 
L 120.211948 -289.514797 
L 126.837551 -289.612654 
L 133.463154 -289.518601 
L 140.088757 -289.579279 
L 146.71436 -289.631943 
L 153.339963 -289.636247 
L 159.965566 -289.315352 
L 166.591169 -289.142399 
L 173.216772 -289.149644 
L 179.842375 -289.381853 
L 186.467978 -289.529086 
L 193.093581 -289.63875 
L 199.719184 -289.884299 
L 206.344787 -289.936531 
L 212.97039 -289.887422 
L 219.595993 -289.765907 
L 226.221596 -289.791453 
L 232.847199 -289.620879 
L 239.472801 -289.407828 
L 246.098404 -289.316574 
L 252.724007 -289.106711 
L 259.34961 -289.078065 
L 265.975213 -288.988404 
L 272.600816 -288.877622 
L 279.226419 -288.66604 
L 285.852022 -288.736328 
L 292.477625 -288.754735 
L 299.103228 -288.534116 
L 305.728831 -288.572153 
L 312.354434 -288.474113 
L 318.980037 -288.535952 
L 325.60564 -288.555834 
L 332.231243 -288.50408 
L 338.856846 -288.459572 
L 345.482449 -288.725223 
L 352.108052 -288.834854 
L 358.733655 -289.082763 
L 365.359258 -289.1684 
L 371.984861 -289.29832 
L 378.610464 -289.353564 
L 385.236067 -289.456759 
L 391.86167 -289.448202 
L 398.487273 -289.344387 
L 398.487273 -291.06666 
L 398.487273 -291.06666 
L 391.86167 -291.198095 
L 385.236067 -291.178475 
L 378.610464 -291.178925 
L 371.984861 -291.047533 
L 365.359258 -291.075216 
L 358.733655 -291.028886 
L 352.108052 -290.928979 
L 345.482449 -290.891384 
L 338.856846 -290.676899 
L 332.231243 -290.791958 
L 325.60564 -290.713261 
L 318.980037 -290.732673 
L 312.354434 -290.632356 
L 305.728831 -290.742377 
L 299.103228 -290.852451 
L 292.477625 -290.94615 
L 285.852022 -290.913044 
L 279.226419 -290.886038 
L 272.600816 -291.094306 
L 265.975213 -291.173649 
L 259.34961 -291.332862 
L 252.724007 -291.365466 
L 246.098404 -291.408571 
L 239.472801 -291.482561 
L 232.847199 -291.680223 
L 226.221596 -291.79857 
L 219.595993 -291.785233 
L 212.97039 -291.813319 
L 206.344787 -291.863019 
L 199.719184 -291.826602 
L 193.093581 -291.854788 
L 186.467978 -291.635336 
L 179.842375 -291.578827 
L 173.216772 -291.514915 
L 166.591169 -291.520526 
L 159.965566 -291.690807 
L 153.339963 -291.637814 
L 146.71436 -291.699942 
L 140.088757 -291.781983 
L 133.463154 -291.687024 
L 126.837551 -291.52463 
L 120.211948 -291.336256 
L 113.586345 -290.836773 
L 106.960742 -290.276368 
L 100.335139 -289.414532 
L 93.709536 -288.397056 
L 87.083933 -286.852693 
L 80.45833 -285.059823 
L 73.832727 -283.797233 
z
" id="m166958f0ad" style="stroke:#dd8452;stroke-opacity:0.2;"/>
    </defs>
    <g clip-path="url(#p177a5552c1)">
     <use style="fill:#dd8452;fill-opacity:0.2;stroke:#dd8452;stroke-opacity:0.2;" x="0" xlink:href="#m166958f0ad" y="345.6"/>
    </g>
   </g>
   <g id="PolyCollection_3">
    <defs>
     <path d="M 73.832727 -283.744935 
L 73.832727 -278.267076 
L 80.45833 -280.9046 
L 87.083933 -283.392565 
L 93.709536 -285.48708 
L 100.335139 -287.225513 
L 106.960742 -288.231625 
L 113.586345 -288.887468 
L 120.211948 -289.403948 
L 126.837551 -289.533169 
L 133.463154 -289.589498 
L 140.088757 -289.615748 
L 146.71436 -289.597344 
L 153.339963 -289.584253 
L 159.965566 -289.275915 
L 166.591169 -289.091112 
L 173.216772 -289.030765 
L 179.842375 -289.223754 
L 186.467978 -289.418162 
L 193.093581 -289.649267 
L 199.719184 -289.61183 
L 206.344787 -289.826058 
L 212.97039 -289.845606 
L 219.595993 -289.710461 
L 226.221596 -289.748087 
L 232.847199 -289.529191 
L 239.472801 -289.260192 
L 246.098404 -289.257949 
L 252.724007 -289.103232 
L 259.34961 -289.091862 
L 265.975213 -289.007776 
L 272.600816 -288.634193 
L 279.226419 -288.533888 
L 285.852022 -288.508249 
L 292.477625 -288.530183 
L 299.103228 -288.447314 
L 305.728831 -288.315836 
L 312.354434 -288.184119 
L 318.980037 -288.16146 
L 325.60564 -288.337654 
L 332.231243 -288.312665 
L 338.856846 -288.254628 
L 345.482449 -288.513807 
L 352.108052 -288.666697 
L 358.733655 -288.76708 
L 365.359258 -288.905158 
L 371.984861 -289.07655 
L 378.610464 -289.192286 
L 385.236067 -289.352616 
L 391.86167 -289.280562 
L 398.487273 -289.054017 
L 398.487273 -291.005223 
L 398.487273 -291.005223 
L 391.86167 -291.075496 
L 385.236067 -291.186221 
L 378.610464 -291.069493 
L 371.984861 -291.020233 
L 365.359258 -291.109003 
L 358.733655 -290.982966 
L 352.108052 -290.869326 
L 345.482449 -290.729434 
L 338.856846 -290.639456 
L 332.231243 -290.646519 
L 325.60564 -290.673232 
L 318.980037 -290.574102 
L 312.354434 -290.607872 
L 305.728831 -290.699626 
L 299.103228 -290.743368 
L 292.477625 -290.908945 
L 285.852022 -290.899864 
L 279.226419 -290.929016 
L 272.600816 -291.021623 
L 265.975213 -291.158393 
L 259.34961 -291.294194 
L 252.724007 -291.33576 
L 246.098404 -291.439583 
L 239.472801 -291.539585 
L 232.847199 -291.684206 
L 226.221596 -291.748027 
L 219.595993 -291.774905 
L 212.97039 -291.831427 
L 206.344787 -291.78499 
L 199.719184 -291.875652 
L 193.093581 -291.836631 
L 186.467978 -291.723689 
L 179.842375 -291.602932 
L 173.216772 -291.493621 
L 166.591169 -291.448357 
L 159.965566 -291.609794 
L 153.339963 -291.673703 
L 146.71436 -291.602115 
L 140.088757 -291.688684 
L 133.463154 -291.670291 
L 126.837551 -291.591283 
L 120.211948 -291.324925 
L 113.586345 -290.843526 
L 106.960742 -290.27401 
L 100.335139 -289.45653 
L 93.709536 -288.25529 
L 87.083933 -286.964987 
L 80.45833 -285.255406 
L 73.832727 -283.744935 
z
" id="m1aee582f0d" style="stroke:#55a868;stroke-opacity:0.2;"/>
    </defs>
    <g clip-path="url(#p177a5552c1)">
     <use style="fill:#55a868;fill-opacity:0.2;stroke:#55a868;stroke-opacity:0.2;" x="0" xlink:href="#m1aee582f0d" y="345.6"/>
    </g>
   </g>
   <g id="PolyCollection_4">
    <defs>
     <path d="M 73.832727 -280.136811 
L 73.832727 -273.056818 
L 80.45833 -273.969571 
L 87.083933 -274.445308 
L 93.709536 -273.780321 
L 100.335139 -271.478122 
L 106.960742 -268.141557 
L 113.586345 -262.041839 
L 120.211948 -254.564494 
L 126.837551 -243.238854 
L 133.463154 -227.447 
L 140.088757 -209.552392 
L 146.71436 -187.34364 
L 153.339963 -164.512381 
L 159.965566 -146.878981 
L 166.591169 -135.850348 
L 173.216772 -145.556375 
L 179.842375 -145.807648 
L 186.467978 -149.197484 
L 193.093581 -143.219734 
L 199.719184 -139.555805 
L 206.344787 -130.749937 
L 212.97039 -135.388519 
L 219.595993 -135.677777 
L 226.221596 -131.949188 
L 232.847199 -130.131747 
L 239.472801 -131.069569 
L 246.098404 -129.81292 
L 252.724007 -130.121824 
L 259.34961 -123.321686 
L 265.975213 -122.819979 
L 272.600816 -114.040229 
L 279.226419 -96.9989 
L 285.852022 -94.691521 
L 292.477625 -99.317914 
L 299.103228 -96.36138 
L 305.728831 -102.895623 
L 312.354434 -100.432266 
L 318.980037 -97.873546 
L 325.60564 -91.948978 
L 332.231243 -89.771799 
L 338.856846 -89.41741 
L 345.482449 -87.875091 
L 352.108052 -82.586993 
L 358.733655 -79.278311 
L 365.359258 -77.337071 
L 371.984861 -75.150288 
L 378.610464 -68.223363 
L 385.236067 -62.893532 
L 391.86167 -56.89897 
L 398.487273 -50.112 
L 398.487273 -134.432583 
L 398.487273 -134.432583 
L 391.86167 -139.488166 
L 385.236067 -141.099385 
L 378.610464 -144.640278 
L 371.984861 -146.523852 
L 365.359258 -151.631577 
L 358.733655 -157.988255 
L 352.108052 -159.544658 
L 345.482449 -164.515954 
L 338.856846 -170.362201 
L 332.231243 -168.369324 
L 325.60564 -170.59956 
L 318.980037 -171.302351 
L 312.354434 -172.664987 
L 305.728831 -171.251449 
L 299.103228 -174.586056 
L 292.477625 -176.045841 
L 285.852022 -175.251805 
L 279.226419 -176.778531 
L 272.600816 -183.590917 
L 265.975213 -190.448502 
L 259.34961 -193.158855 
L 252.724007 -193.044176 
L 246.098404 -197.926798 
L 239.472801 -200.789829 
L 232.847199 -203.33546 
L 226.221596 -204.378972 
L 219.595993 -205.484859 
L 212.97039 -204.508186 
L 206.344787 -207.951682 
L 199.719184 -207.871981 
L 193.093581 -208.680706 
L 186.467978 -210.65947 
L 179.842375 -212.782609 
L 173.216772 -212.199563 
L 166.591169 -212.873605 
L 159.965566 -217.674799 
L 153.339963 -225.752982 
L 146.71436 -234.8952 
L 140.088757 -247.531266 
L 133.463154 -257.143407 
L 126.837551 -264.229558 
L 120.211948 -270.771375 
L 113.586345 -274.980803 
L 106.960742 -278.137461 
L 100.335139 -279.716161 
L 93.709536 -280.496937 
L 87.083933 -280.812544 
L 80.45833 -280.400855 
L 73.832727 -280.136811 
z
" id="mfa89a71fdc" style="stroke:#c44e52;stroke-opacity:0.2;"/>
    </defs>
    <g clip-path="url(#p177a5552c1)">
     <use style="fill:#c44e52;fill-opacity:0.2;stroke:#c44e52;stroke-opacity:0.2;" x="0" xlink:href="#mfa89a71fdc" y="345.6"/>
    </g>
   </g>
   <g id="line2d_16">
    <path clip-path="url(#p177a5552c1)" d="M 73.832727 61.462493 
L 80.45833 60.119899 
L 87.083933 58.71942 
L 93.709536 57.365232 
L 100.335139 56.319325 
L 106.960742 55.601754 
L 113.586345 55.106786 
L 120.211948 54.663927 
L 126.837551 54.517855 
L 133.463154 54.439011 
L 140.088757 54.423512 
L 146.71436 54.414959 
L 153.339963 54.420501 
L 159.965566 54.516358 
L 166.591169 54.587757 
L 173.216772 54.644612 
L 179.842375 54.594294 
L 186.467978 54.494196 
L 193.093581 54.415056 
L 199.719184 54.390346 
L 206.344787 54.377161 
L 212.97039 54.344547 
L 219.595993 54.366759 
L 226.221596 54.388954 
L 232.847199 54.496657 
L 239.472801 54.646607 
L 246.098404 54.767061 
L 252.724007 54.871081 
L 259.34961 54.975905 
L 265.975213 55.051156 
L 272.600816 55.174792 
L 279.226419 55.294618 
L 285.852022 55.338728 
L 292.477625 55.383417 
L 299.103228 55.505877 
L 305.728831 55.51611 
L 312.354434 55.544704 
L 318.980037 55.574342 
L 325.60564 55.505854 
L 332.231243 55.504062 
L 338.856846 55.497809 
L 345.482449 55.378516 
L 352.108052 55.260799 
L 358.733655 55.162919 
L 365.359258 55.110998 
L 371.984861 55.093941 
L 378.610464 55.063782 
L 385.236067 55.027857 
L 391.86167 55.029372 
L 398.487273 55.123278 
" style="fill:none;stroke:#4c72b0;stroke-linecap:round;stroke-width:1.5;"/>
   </g>
   <g id="line2d_17">
    <path clip-path="url(#p177a5552c1)" d="M 73.832727 64.424225 
L 80.45833 62.44754 
L 87.083933 60.429942 
L 93.709536 58.604394 
L 100.335139 57.23333 
L 106.960742 56.258915 
L 113.586345 55.650469 
L 120.211948 55.119153 
L 126.837551 54.986198 
L 133.463154 54.928826 
L 140.088757 54.871343 
L 146.71436 54.891768 
L 153.339963 54.917258 
L 159.965566 55.06925 
L 166.591169 55.163053 
L 173.216772 55.210854 
L 179.842375 55.053061 
L 186.467978 54.898804 
L 193.093581 54.757136 
L 199.719184 54.699724 
L 206.344787 54.664957 
L 212.97039 54.646569 
L 219.595993 54.719149 
L 226.221596 54.738701 
L 232.847199 54.873255 
L 239.472801 55.062165 
L 246.098404 55.20172 
L 252.724007 55.31924 
L 259.34961 55.364235 
L 265.975213 55.434803 
L 272.600816 55.592744 
L 279.226419 55.738997 
L 285.852022 55.760359 
L 292.477625 55.761533 
L 299.103228 55.889962 
L 305.728831 55.924585 
L 312.354434 55.968036 
L 318.980037 56.009633 
L 325.60564 55.913304 
L 332.231243 55.914031 
L 338.856846 55.923266 
L 345.482449 55.78837 
L 352.108052 55.621234 
L 358.733655 55.500001 
L 365.359258 55.418283 
L 371.984861 55.376581 
L 378.610464 55.300505 
L 385.236067 55.232311 
L 391.86167 55.234215 
L 398.487273 55.37194 
" style="fill:none;stroke:#dd8452;stroke-linecap:round;stroke-width:1.5;"/>
   </g>
   <g id="line2d_18">
    <path clip-path="url(#p177a5552c1)" d="M 73.832727 64.405751 
L 80.45833 62.390879 
L 87.083933 60.384475 
L 93.709536 58.637444 
L 100.335139 57.234062 
L 106.960742 56.329837 
L 113.586345 55.73361 
L 120.211948 55.173664 
L 126.837551 54.990719 
L 133.463154 54.945852 
L 140.088757 54.909874 
L 146.71436 54.93201 
L 153.339963 54.963186 
L 159.965566 55.119413 
L 166.591169 55.222017 
L 173.216772 55.256552 
L 179.842375 55.122138 
L 186.467978 54.983484 
L 193.093581 54.847414 
L 199.719184 54.781647 
L 206.344787 54.744076 
L 212.97039 54.714555 
L 219.595993 54.784425 
L 226.221596 54.80988 
L 232.847199 54.934819 
L 239.472801 55.111279 
L 246.098404 55.229284 
L 252.724007 55.346651 
L 259.34961 55.392492 
L 265.975213 55.473703 
L 272.600816 55.651252 
L 279.226419 55.82303 
L 285.852022 55.866905 
L 292.477625 55.883792 
L 299.103228 56.0273 
L 305.728831 56.070721 
L 312.354434 56.127787 
L 318.980037 56.178814 
L 325.60564 56.085642 
L 332.231243 56.079223 
L 338.856846 56.085297 
L 345.482449 55.933479 
L 352.108052 55.757015 
L 358.733655 55.625569 
L 365.359258 55.535441 
L 371.984861 55.477914 
L 378.610464 55.399133 
L 385.236067 55.32551 
L 391.86167 55.342252 
L 398.487273 55.482014 
" style="fill:none;stroke:#55a868;stroke-linecap:round;stroke-width:1.5;"/>
   </g>
   <g id="line2d_19">
    <path clip-path="url(#p177a5552c1)" d="M 73.832727 68.697177 
L 80.45833 68.202894 
L 87.083933 67.760243 
L 93.709536 68.163079 
L 100.335139 69.637562 
L 106.960742 72.257715 
L 113.586345 76.899157 
L 120.211948 82.45549 
L 126.837551 91.668489 
L 133.463154 102.976777 
L 140.088757 115.88773 
L 146.71436 132.555712 
L 153.339963 146.494077 
L 159.965566 158.443149 
L 166.591169 168.137756 
L 173.216772 164.305068 
L 179.842375 163.802616 
L 186.467978 162.59953 
L 193.093581 166.763513 
L 199.719184 171.083743 
L 206.344787 173.431816 
L 212.97039 173.513543 
L 219.595993 172.673449 
L 226.221596 174.811134 
L 232.847199 176.594519 
L 239.472801 177.327575 
L 246.098404 178.124541 
L 252.724007 182.175571 
L 259.34961 184.312137 
L 265.975213 188.330375 
L 272.600816 193.537151 
L 279.226419 202.746628 
L 285.852022 207.12149 
L 292.477625 207.102777 
L 299.103228 206.898796 
L 305.728831 206.380156 
L 312.354434 206.887335 
L 318.980037 207.207301 
L 325.60564 211.853563 
L 332.231243 211.360205 
L 338.856846 213.607436 
L 345.482449 218.319835 
L 352.108052 221.29172 
L 358.733655 223.255356 
L 365.359258 228.905587 
L 371.984861 233.116812 
L 378.610464 236.969568 
L 385.236067 241.262465 
L 391.86167 244.418462 
L 398.487273 249.127566 
" style="fill:none;stroke:#c44e52;stroke-linecap:round;stroke-width:1.5;"/>
   </g>
   <g id="line2d_20"/>
   <g id="line2d_21"/>
   <g id="line2d_22"/>
   <g id="line2d_23"/>
   <g id="patch_3">
    <path d="M 57.6 307.584 
L 57.6 41.472 
" style="fill:none;stroke:#ffffff;stroke-linecap:square;stroke-linejoin:miter;stroke-width:1.25;"/>
   </g>
   <g id="patch_4">
    <path d="M 414.72 307.584 
L 414.72 41.472 
" style="fill:none;stroke:#ffffff;stroke-linecap:square;stroke-linejoin:miter;stroke-width:1.25;"/>
   </g>
   <g id="patch_5">
    <path d="M 57.6 307.584 
L 414.72 307.584 
" style="fill:none;stroke:#ffffff;stroke-linecap:square;stroke-linejoin:miter;stroke-width:1.25;"/>
   </g>
   <g id="patch_6">
    <path d="M 57.6 41.472 
L 414.72 41.472 
" style="fill:none;stroke:#ffffff;stroke-linecap:square;stroke-linejoin:miter;stroke-width:1.25;"/>
   </g>
   <g id="text_17">
    <!-- Coverage -->
    <g style="fill:#262626;" transform="translate(207.411563 35.472)scale(0.12 -0.12)">
     <defs>
      <path d="M 4122 4306 
L 4122 3641 
Q 3803 3938 3442 4084 
Q 3081 4231 2675 4231 
Q 1875 4231 1450 3742 
Q 1025 3253 1025 2328 
Q 1025 1406 1450 917 
Q 1875 428 2675 428 
Q 3081 428 3442 575 
Q 3803 722 4122 1019 
L 4122 359 
Q 3791 134 3420 21 
Q 3050 -91 2638 -91 
Q 1578 -91 968 557 
Q 359 1206 359 2328 
Q 359 3453 968 4101 
Q 1578 4750 2638 4750 
Q 3056 4750 3426 4639 
Q 3797 4528 4122 4306 
z
" id="DejaVuSans-43" transform="scale(0.015625)"/>
      <path d="M 1959 3097 
Q 1497 3097 1228 2736 
Q 959 2375 959 1747 
Q 959 1119 1226 758 
Q 1494 397 1959 397 
Q 2419 397 2687 759 
Q 2956 1122 2956 1747 
Q 2956 2369 2687 2733 
Q 2419 3097 1959 3097 
z
M 1959 3584 
Q 2709 3584 3137 3096 
Q 3566 2609 3566 1747 
Q 3566 888 3137 398 
Q 2709 -91 1959 -91 
Q 1206 -91 779 398 
Q 353 888 353 1747 
Q 353 2609 779 3096 
Q 1206 3584 1959 3584 
z
" id="DejaVuSans-6f" transform="scale(0.015625)"/>
      <path d="M 191 3500 
L 800 3500 
L 1894 563 
L 2988 3500 
L 3597 3500 
L 2284 0 
L 1503 0 
L 191 3500 
z
" id="DejaVuSans-76" transform="scale(0.015625)"/>
      <path d="M 2631 2963 
Q 2534 3019 2420 3045 
Q 2306 3072 2169 3072 
Q 1681 3072 1420 2755 
Q 1159 2438 1159 1844 
L 1159 0 
L 581 0 
L 581 3500 
L 1159 3500 
L 1159 2956 
Q 1341 3275 1631 3429 
Q 1922 3584 2338 3584 
Q 2397 3584 2469 3576 
Q 2541 3569 2628 3553 
L 2631 2963 
z
" id="DejaVuSans-72" transform="scale(0.015625)"/>
      <path d="M 2194 1759 
Q 1497 1759 1228 1600 
Q 959 1441 959 1056 
Q 959 750 1161 570 
Q 1363 391 1709 391 
Q 2188 391 2477 730 
Q 2766 1069 2766 1631 
L 2766 1759 
L 2194 1759 
z
M 3341 1997 
L 3341 0 
L 2766 0 
L 2766 531 
Q 2569 213 2275 61 
Q 1981 -91 1556 -91 
Q 1019 -91 701 211 
Q 384 513 384 1019 
Q 384 1609 779 1909 
Q 1175 2209 1959 2209 
L 2766 2209 
L 2766 2266 
Q 2766 2663 2505 2880 
Q 2244 3097 1772 3097 
Q 1472 3097 1187 3025 
Q 903 2953 641 2809 
L 641 3341 
Q 956 3463 1253 3523 
Q 1550 3584 1831 3584 
Q 2591 3584 2966 3190 
Q 3341 2797 3341 1997 
z
" id="DejaVuSans-61" transform="scale(0.015625)"/>
      <path d="M 2906 1791 
Q 2906 2416 2648 2759 
Q 2391 3103 1925 3103 
Q 1463 3103 1205 2759 
Q 947 2416 947 1791 
Q 947 1169 1205 825 
Q 1463 481 1925 481 
Q 2391 481 2648 825 
Q 2906 1169 2906 1791 
z
M 3481 434 
Q 3481 -459 3084 -895 
Q 2688 -1331 1869 -1331 
Q 1566 -1331 1297 -1286 
Q 1028 -1241 775 -1147 
L 775 -588 
Q 1028 -725 1275 -790 
Q 1522 -856 1778 -856 
Q 2344 -856 2625 -561 
Q 2906 -266 2906 331 
L 2906 616 
Q 2728 306 2450 153 
Q 2172 0 1784 0 
Q 1141 0 747 490 
Q 353 981 353 1791 
Q 353 2603 747 3093 
Q 1141 3584 1784 3584 
Q 2172 3584 2450 3431 
Q 2728 3278 2906 2969 
L 2906 3500 
L 3481 3500 
L 3481 434 
z
" id="DejaVuSans-67" transform="scale(0.015625)"/>
     </defs>
     <use xlink:href="#DejaVuSans-43"/>
     <use x="69.824219" xlink:href="#DejaVuSans-6f"/>
     <use x="131.005859" xlink:href="#DejaVuSans-76"/>
     <use x="190.185547" xlink:href="#DejaVuSans-65"/>
     <use x="251.708984" xlink:href="#DejaVuSans-72"/>
     <use x="292.822266" xlink:href="#DejaVuSans-61"/>
     <use x="354.101562" xlink:href="#DejaVuSans-67"/>
     <use x="417.578125" xlink:href="#DejaVuSans-65"/>
    </g>
   </g>
  </g>
 </g>
 <defs>
  <clipPath id="p177a5552c1">
   <rect height="266.112" width="357.12" x="57.6" y="41.472"/>
  </clipPath>
 </defs>
</svg>
