<?xml version="1.0" encoding="utf-8" standalone="no"?>
<!DOCTYPE svg PUBLIC "-//W3C//DTD SVG 1.1//EN"
  "http://www.w3.org/Graphics/SVG/1.1/DTD/svg11.dtd">
<svg height="345.6pt" version="1.1" viewBox="0 0 460.8 345.6" width="460.8pt" xmlns="http://www.w3.org/2000/svg" xmlns:xlink="http://www.w3.org/1999/xlink">
 <metadata>
  <rdf:RDF xmlns:cc="http://creativecommons.org/ns#" xmlns:dc="http://purl.org/dc/elements/1.1/" xmlns:rdf="http://www.w3.org/1999/02/22-rdf-syntax-ns#">
   <cc:Work>
    <dc:type rdf:resource="http://purl.org/dc/dcmitype/StillImage"/>
    <dc:date>2022-02-09T22:34:46.351978</dc:date>
    <dc:format>image/svg+xml</dc:format>
    <dc:creator>
     <cc:Agent>
      <dc:title>Matplotlib v3.4.3, https://matplotlib.org/</dc:title>
     </cc:Agent>
    </dc:creator>
   </cc:Work>
  </rdf:RDF>
 </metadata>
 <defs>
  <style type="text/css">*{stroke-linecap:butt;stroke-linejoin:round;}</style>
 </defs>
 <g id="figure_1">
  <g id="patch_1">
   <path d="M 0 345.6 
L 460.8 345.6 
L 460.8 0 
L 0 0 
z
" style="fill:#ffffff;"/>
  </g>
  <g id="axes_1">
   <g id="patch_2">
    <path d="M 57.6 307.584 
L 414.72 307.584 
L 414.72 41.472 
L 57.6 41.472 
z
" style="fill:#eaeaf2;"/>
   </g>
   <g id="matplotlib.axis_1">
    <g id="xtick_1">
     <g id="line2d_1">
      <path clip-path="url(#pdc736bd7eb)" d="M 73.832727 307.584 
L 73.832727 41.472 
" style="fill:none;stroke:#ffffff;stroke-linecap:round;"/>
     </g>
     <g id="text_1">
      <!-- 0 -->
      <g style="fill:#262626;" transform="translate(70.333352 325.442281)scale(0.11 -0.11)">
       <defs>
        <path d="M 2034 4250 
Q 1547 4250 1301 3770 
Q 1056 3291 1056 2328 
Q 1056 1369 1301 889 
Q 1547 409 2034 409 
Q 2525 409 2770 889 
Q 3016 1369 3016 2328 
Q 3016 3291 2770 3770 
Q 2525 4250 2034 4250 
z
M 2034 4750 
Q 2819 4750 3233 4129 
Q 3647 3509 3647 2328 
Q 3647 1150 3233 529 
Q 2819 -91 2034 -91 
Q 1250 -91 836 529 
Q 422 1150 422 2328 
Q 422 3509 836 4129 
Q 1250 4750 2034 4750 
z
" id="DejaVuSans-30" transform="scale(0.015625)"/>
       </defs>
       <use xlink:href="#DejaVuSans-30"/>
      </g>
     </g>
    </g>
    <g id="xtick_2">
     <g id="line2d_2">
      <path clip-path="url(#pdc736bd7eb)" d="M 140.088757 307.584 
L 140.088757 41.472 
" style="fill:none;stroke:#ffffff;stroke-linecap:round;"/>
     </g>
     <g id="text_2">
      <!-- 10 -->
      <g style="fill:#262626;" transform="translate(133.090007 325.442281)scale(0.11 -0.11)">
       <defs>
        <path d="M 794 531 
L 1825 531 
L 1825 4091 
L 703 3866 
L 703 4441 
L 1819 4666 
L 2450 4666 
L 2450 531 
L 3481 531 
L 3481 0 
L 794 0 
L 794 531 
z
" id="DejaVuSans-31" transform="scale(0.015625)"/>
       </defs>
       <use xlink:href="#DejaVuSans-31"/>
       <use x="63.623047" xlink:href="#DejaVuSans-30"/>
      </g>
     </g>
    </g>
    <g id="xtick_3">
     <g id="line2d_3">
      <path clip-path="url(#pdc736bd7eb)" d="M 206.344787 307.584 
L 206.344787 41.472 
" style="fill:none;stroke:#ffffff;stroke-linecap:round;"/>
     </g>
     <g id="text_3">
      <!-- 20 -->
      <g style="fill:#262626;" transform="translate(199.346037 325.442281)scale(0.11 -0.11)">
       <defs>
        <path d="M 1228 531 
L 3431 531 
L 3431 0 
L 469 0 
L 469 531 
Q 828 903 1448 1529 
Q 2069 2156 2228 2338 
Q 2531 2678 2651 2914 
Q 2772 3150 2772 3378 
Q 2772 3750 2511 3984 
Q 2250 4219 1831 4219 
Q 1534 4219 1204 4116 
Q 875 4013 500 3803 
L 500 4441 
Q 881 4594 1212 4672 
Q 1544 4750 1819 4750 
Q 2544 4750 2975 4387 
Q 3406 4025 3406 3419 
Q 3406 3131 3298 2873 
Q 3191 2616 2906 2266 
Q 2828 2175 2409 1742 
Q 1991 1309 1228 531 
z
" id="DejaVuSans-32" transform="scale(0.015625)"/>
       </defs>
       <use xlink:href="#DejaVuSans-32"/>
       <use x="63.623047" xlink:href="#DejaVuSans-30"/>
      </g>
     </g>
    </g>
    <g id="xtick_4">
     <g id="line2d_4">
      <path clip-path="url(#pdc736bd7eb)" d="M 272.600816 307.584 
L 272.600816 41.472 
" style="fill:none;stroke:#ffffff;stroke-linecap:round;"/>
     </g>
     <g id="text_4">
      <!-- 30 -->
      <g style="fill:#262626;" transform="translate(265.602066 325.442281)scale(0.11 -0.11)">
       <defs>
        <path d="M 2597 2516 
Q 3050 2419 3304 2112 
Q 3559 1806 3559 1356 
Q 3559 666 3084 287 
Q 2609 -91 1734 -91 
Q 1441 -91 1130 -33 
Q 819 25 488 141 
L 488 750 
Q 750 597 1062 519 
Q 1375 441 1716 441 
Q 2309 441 2620 675 
Q 2931 909 2931 1356 
Q 2931 1769 2642 2001 
Q 2353 2234 1838 2234 
L 1294 2234 
L 1294 2753 
L 1863 2753 
Q 2328 2753 2575 2939 
Q 2822 3125 2822 3475 
Q 2822 3834 2567 4026 
Q 2313 4219 1838 4219 
Q 1578 4219 1281 4162 
Q 984 4106 628 3988 
L 628 4550 
Q 988 4650 1302 4700 
Q 1616 4750 1894 4750 
Q 2613 4750 3031 4423 
Q 3450 4097 3450 3541 
Q 3450 3153 3228 2886 
Q 3006 2619 2597 2516 
z
" id="DejaVuSans-33" transform="scale(0.015625)"/>
       </defs>
       <use xlink:href="#DejaVuSans-33"/>
       <use x="63.623047" xlink:href="#DejaVuSans-30"/>
      </g>
     </g>
    </g>
    <g id="xtick_5">
     <g id="line2d_5">
      <path clip-path="url(#pdc736bd7eb)" d="M 338.856846 307.584 
L 338.856846 41.472 
" style="fill:none;stroke:#ffffff;stroke-linecap:round;"/>
     </g>
     <g id="text_5">
      <!-- 40 -->
      <g style="fill:#262626;" transform="translate(331.858096 325.442281)scale(0.11 -0.11)">
       <defs>
        <path d="M 2419 4116 
L 825 1625 
L 2419 1625 
L 2419 4116 
z
M 2253 4666 
L 3047 4666 
L 3047 1625 
L 3713 1625 
L 3713 1100 
L 3047 1100 
L 3047 0 
L 2419 0 
L 2419 1100 
L 313 1100 
L 313 1709 
L 2253 4666 
z
" id="DejaVuSans-34" transform="scale(0.015625)"/>
       </defs>
       <use xlink:href="#DejaVuSans-34"/>
       <use x="63.623047" xlink:href="#DejaVuSans-30"/>
      </g>
     </g>
    </g>
    <g id="xtick_6">
     <g id="line2d_6">
      <path clip-path="url(#pdc736bd7eb)" d="M 405.112876 307.584 
L 405.112876 41.472 
" style="fill:none;stroke:#ffffff;stroke-linecap:round;"/>
     </g>
     <g id="text_6">
      <!-- 50 -->
      <g style="fill:#262626;" transform="translate(398.114126 325.442281)scale(0.11 -0.11)">
       <defs>
        <path d="M 691 4666 
L 3169 4666 
L 3169 4134 
L 1269 4134 
L 1269 2991 
Q 1406 3038 1543 3061 
Q 1681 3084 1819 3084 
Q 2600 3084 3056 2656 
Q 3513 2228 3513 1497 
Q 3513 744 3044 326 
Q 2575 -91 1722 -91 
Q 1428 -91 1123 -41 
Q 819 9 494 109 
L 494 744 
Q 775 591 1075 516 
Q 1375 441 1709 441 
Q 2250 441 2565 725 
Q 2881 1009 2881 1497 
Q 2881 1984 2565 2268 
Q 2250 2553 1709 2553 
Q 1456 2553 1204 2497 
Q 953 2441 691 2322 
L 691 4666 
z
" id="DejaVuSans-35" transform="scale(0.015625)"/>
       </defs>
       <use xlink:href="#DejaVuSans-35"/>
       <use x="63.623047" xlink:href="#DejaVuSans-30"/>
      </g>
     </g>
    </g>
    <g id="text_7">
     <!-- Time Steps -->
     <g style="fill:#262626;" transform="translate(202.785 340.848062)scale(0.12 -0.12)">
      <defs>
       <path d="M -19 4666 
L 3928 4666 
L 3928 4134 
L 2272 4134 
L 2272 0 
L 1638 0 
L 1638 4134 
L -19 4134 
L -19 4666 
z
" id="DejaVuSans-54" transform="scale(0.015625)"/>
       <path d="M 603 3500 
L 1178 3500 
L 1178 0 
L 603 0 
L 603 3500 
z
M 603 4863 
L 1178 4863 
L 1178 4134 
L 603 4134 
L 603 4863 
z
" id="DejaVuSans-69" transform="scale(0.015625)"/>
       <path d="M 3328 2828 
Q 3544 3216 3844 3400 
Q 4144 3584 4550 3584 
Q 5097 3584 5394 3201 
Q 5691 2819 5691 2113 
L 5691 0 
L 5113 0 
L 5113 2094 
Q 5113 2597 4934 2840 
Q 4756 3084 4391 3084 
Q 3944 3084 3684 2787 
Q 3425 2491 3425 1978 
L 3425 0 
L 2847 0 
L 2847 2094 
Q 2847 2600 2669 2842 
Q 2491 3084 2119 3084 
Q 1678 3084 1418 2786 
Q 1159 2488 1159 1978 
L 1159 0 
L 581 0 
L 581 3500 
L 1159 3500 
L 1159 2956 
Q 1356 3278 1631 3431 
Q 1906 3584 2284 3584 
Q 2666 3584 2933 3390 
Q 3200 3197 3328 2828 
z
" id="DejaVuSans-6d" transform="scale(0.015625)"/>
       <path d="M 3597 1894 
L 3597 1613 
L 953 1613 
Q 991 1019 1311 708 
Q 1631 397 2203 397 
Q 2534 397 2845 478 
Q 3156 559 3463 722 
L 3463 178 
Q 3153 47 2828 -22 
Q 2503 -91 2169 -91 
Q 1331 -91 842 396 
Q 353 884 353 1716 
Q 353 2575 817 3079 
Q 1281 3584 2069 3584 
Q 2775 3584 3186 3129 
Q 3597 2675 3597 1894 
z
M 3022 2063 
Q 3016 2534 2758 2815 
Q 2500 3097 2075 3097 
Q 1594 3097 1305 2825 
Q 1016 2553 972 2059 
L 3022 2063 
z
" id="DejaVuSans-65" transform="scale(0.015625)"/>
       <path id="DejaVuSans-20" transform="scale(0.015625)"/>
       <path d="M 3425 4513 
L 3425 3897 
Q 3066 4069 2747 4153 
Q 2428 4238 2131 4238 
Q 1616 4238 1336 4038 
Q 1056 3838 1056 3469 
Q 1056 3159 1242 3001 
Q 1428 2844 1947 2747 
L 2328 2669 
Q 3034 2534 3370 2195 
Q 3706 1856 3706 1288 
Q 3706 609 3251 259 
Q 2797 -91 1919 -91 
Q 1588 -91 1214 -16 
Q 841 59 441 206 
L 441 856 
Q 825 641 1194 531 
Q 1563 422 1919 422 
Q 2459 422 2753 634 
Q 3047 847 3047 1241 
Q 3047 1584 2836 1778 
Q 2625 1972 2144 2069 
L 1759 2144 
Q 1053 2284 737 2584 
Q 422 2884 422 3419 
Q 422 4038 858 4394 
Q 1294 4750 2059 4750 
Q 2388 4750 2728 4690 
Q 3069 4631 3425 4513 
z
" id="DejaVuSans-53" transform="scale(0.015625)"/>
       <path d="M 1172 4494 
L 1172 3500 
L 2356 3500 
L 2356 3053 
L 1172 3053 
L 1172 1153 
Q 1172 725 1289 603 
Q 1406 481 1766 481 
L 2356 481 
L 2356 0 
L 1766 0 
Q 1100 0 847 248 
Q 594 497 594 1153 
L 594 3053 
L 172 3053 
L 172 3500 
L 594 3500 
L 594 4494 
L 1172 4494 
z
" id="DejaVuSans-74" transform="scale(0.015625)"/>
       <path d="M 1159 525 
L 1159 -1331 
L 581 -1331 
L 581 3500 
L 1159 3500 
L 1159 2969 
Q 1341 3281 1617 3432 
Q 1894 3584 2278 3584 
Q 2916 3584 3314 3078 
Q 3713 2572 3713 1747 
Q 3713 922 3314 415 
Q 2916 -91 2278 -91 
Q 1894 -91 1617 61 
Q 1341 213 1159 525 
z
M 3116 1747 
Q 3116 2381 2855 2742 
Q 2594 3103 2138 3103 
Q 1681 3103 1420 2742 
Q 1159 2381 1159 1747 
Q 1159 1113 1420 752 
Q 1681 391 2138 391 
Q 2594 391 2855 752 
Q 3116 1113 3116 1747 
z
" id="DejaVuSans-70" transform="scale(0.015625)"/>
       <path d="M 2834 3397 
L 2834 2853 
Q 2591 2978 2328 3040 
Q 2066 3103 1784 3103 
Q 1356 3103 1142 2972 
Q 928 2841 928 2578 
Q 928 2378 1081 2264 
Q 1234 2150 1697 2047 
L 1894 2003 
Q 2506 1872 2764 1633 
Q 3022 1394 3022 966 
Q 3022 478 2636 193 
Q 2250 -91 1575 -91 
Q 1294 -91 989 -36 
Q 684 19 347 128 
L 347 722 
Q 666 556 975 473 
Q 1284 391 1588 391 
Q 1994 391 2212 530 
Q 2431 669 2431 922 
Q 2431 1156 2273 1281 
Q 2116 1406 1581 1522 
L 1381 1569 
Q 847 1681 609 1914 
Q 372 2147 372 2553 
Q 372 3047 722 3315 
Q 1072 3584 1716 3584 
Q 2034 3584 2315 3537 
Q 2597 3491 2834 3397 
z
" id="DejaVuSans-73" transform="scale(0.015625)"/>
      </defs>
      <use xlink:href="#DejaVuSans-54"/>
      <use x="57.958984" xlink:href="#DejaVuSans-69"/>
      <use x="85.742188" xlink:href="#DejaVuSans-6d"/>
      <use x="183.154297" xlink:href="#DejaVuSans-65"/>
      <use x="244.677734" xlink:href="#DejaVuSans-20"/>
      <use x="276.464844" xlink:href="#DejaVuSans-53"/>
      <use x="339.941406" xlink:href="#DejaVuSans-74"/>
      <use x="379.150391" xlink:href="#DejaVuSans-65"/>
      <use x="440.673828" xlink:href="#DejaVuSans-70"/>
      <use x="504.150391" xlink:href="#DejaVuSans-73"/>
     </g>
    </g>
   </g>
   <g id="matplotlib.axis_2">
    <g id="ytick_1">
     <g id="line2d_7">
      <path clip-path="url(#pdc736bd7eb)" d="M 57.6 273.806922 
L 414.72 273.806922 
" style="fill:none;stroke:#ffffff;stroke-linecap:round;"/>
     </g>
     <g id="text_8">
      <!-- −5 -->
      <g style="fill:#262626;" transform="translate(31.883594 277.986062)scale(0.11 -0.11)">
       <defs>
        <path d="M 678 2272 
L 4684 2272 
L 4684 1741 
L 678 1741 
L 678 2272 
z
" id="DejaVuSans-2212" transform="scale(0.015625)"/>
       </defs>
       <use xlink:href="#DejaVuSans-2212"/>
       <use x="83.789062" xlink:href="#DejaVuSans-35"/>
      </g>
     </g>
    </g>
    <g id="ytick_2">
     <g id="line2d_8">
      <path clip-path="url(#pdc736bd7eb)" d="M 57.6 220.66745 
L 414.72 220.66745 
" style="fill:none;stroke:#ffffff;stroke-linecap:round;"/>
     </g>
     <g id="text_9">
      <!-- −4 -->
      <g style="fill:#262626;" transform="translate(31.883594 224.846591)scale(0.11 -0.11)">
       <use xlink:href="#DejaVuSans-2212"/>
       <use x="83.789062" xlink:href="#DejaVuSans-34"/>
      </g>
     </g>
    </g>
    <g id="ytick_3">
     <g id="line2d_9">
      <path clip-path="url(#pdc736bd7eb)" d="M 57.6 167.527979 
L 414.72 167.527979 
" style="fill:none;stroke:#ffffff;stroke-linecap:round;"/>
     </g>
     <g id="text_10">
      <!-- −3 -->
      <g style="fill:#262626;" transform="translate(31.883594 171.707119)scale(0.11 -0.11)">
       <use xlink:href="#DejaVuSans-2212"/>
       <use x="83.789062" xlink:href="#DejaVuSans-33"/>
      </g>
     </g>
    </g>
    <g id="ytick_4">
     <g id="line2d_10">
      <path clip-path="url(#pdc736bd7eb)" d="M 57.6 114.388507 
L 414.72 114.388507 
" style="fill:none;stroke:#ffffff;stroke-linecap:round;"/>
     </g>
     <g id="text_11">
      <!-- −2 -->
      <g style="fill:#262626;" transform="translate(31.883594 118.567648)scale(0.11 -0.11)">
       <use xlink:href="#DejaVuSans-2212"/>
       <use x="83.789062" xlink:href="#DejaVuSans-32"/>
      </g>
     </g>
    </g>
    <g id="ytick_5">
     <g id="line2d_11">
      <path clip-path="url(#pdc736bd7eb)" d="M 57.6 61.249036 
L 414.72 61.249036 
" style="fill:none;stroke:#ffffff;stroke-linecap:round;"/>
     </g>
     <g id="text_12">
      <!-- −1 -->
      <g style="fill:#262626;" transform="translate(31.883594 65.428176)scale(0.11 -0.11)">
       <use xlink:href="#DejaVuSans-2212"/>
       <use x="83.789062" xlink:href="#DejaVuSans-31"/>
      </g>
     </g>
    </g>
   </g>
   <g id="PolyCollection_1">
    <defs>
     <path d="M 73.832727 -240.457521 
L 73.832727 -231.07638 
L 80.45833 -235.033512 
L 87.083933 -239.450739 
L 93.709536 -244.850032 
L 100.335139 -251.123699 
L 106.960742 -256.836595 
L 113.586345 -262.711965 
L 120.211948 -268.324826 
L 126.837551 -273.395608 
L 133.463154 -277.603287 
L 140.088757 -280.850719 
L 146.71436 -283.130803 
L 153.339963 -284.981601 
L 159.965566 -285.568882 
L 166.591169 -285.903289 
L 173.216772 -286.010255 
L 179.842375 -286.236625 
L 186.467978 -286.615615 
L 193.093581 -286.48298 
L 199.719184 -286.48257 
L 206.344787 -285.945785 
L 212.97039 -285.069997 
L 219.595993 -284.489715 
L 226.221596 -283.985854 
L 232.847199 -283.866559 
L 239.472801 -284.548009 
L 246.098404 -284.833066 
L 252.724007 -285.244109 
L 259.34961 -285.719005 
L 265.975213 -285.592962 
L 272.600816 -285.807405 
L 279.226419 -285.846914 
L 285.852022 -286.075286 
L 292.477625 -285.542924 
L 299.103228 -285.807407 
L 305.728831 -286.058376 
L 312.354434 -286.291276 
L 318.980037 -286.477893 
L 325.60564 -286.315722 
L 332.231243 -286.540967 
L 338.856846 -286.405674 
L 345.482449 -286.324932 
L 352.108052 -286.262019 
L 358.733655 -286.247473 
L 365.359258 -286.303997 
L 371.984861 -286.380449 
L 378.610464 -286.391315 
L 385.236067 -286.467392 
L 391.86167 -286.769276 
L 398.487273 -286.605347 
L 398.487273 -291.788806 
L 398.487273 -291.788806 
L 391.86167 -291.9047 
L 385.236067 -291.554693 
L 378.610464 -291.107857 
L 371.984861 -291.135313 
L 365.359258 -291.144471 
L 358.733655 -291.384132 
L 352.108052 -291.11633 
L 345.482449 -291.160207 
L 338.856846 -291.425133 
L 332.231243 -291.239867 
L 325.60564 -291.161291 
L 318.980037 -291.244287 
L 312.354434 -291.193467 
L 305.728831 -290.851512 
L 299.103228 -290.738279 
L 292.477625 -290.591275 
L 285.852022 -290.645077 
L 279.226419 -291.075967 
L 272.600816 -290.806897 
L 265.975213 -290.764087 
L 259.34961 -290.845947 
L 252.724007 -290.42547 
L 246.098404 -289.87937 
L 239.472801 -289.379414 
L 232.847199 -288.839905 
L 226.221596 -289.018473 
L 219.595993 -289.475219 
L 212.97039 -290.000738 
L 206.344787 -290.897081 
L 199.719184 -291.422713 
L 193.093581 -291.265612 
L 186.467978 -291.202083 
L 179.842375 -291.221305 
L 173.216772 -291.026115 
L 166.591169 -290.966517 
L 159.965566 -290.759966 
L 153.339963 -290.273166 
L 146.71436 -288.509179 
L 140.088757 -286.470859 
L 133.463154 -283.544149 
L 126.837551 -279.628769 
L 120.211948 -274.459944 
L 113.586345 -268.8908 
L 106.960742 -263.231428 
L 100.335139 -258.06397 
L 93.709536 -252.676599 
L 87.083933 -247.249618 
L 80.45833 -243.080127 
L 73.832727 -240.457521 
z
" id="mf50763f743" style="stroke:#4c72b0;stroke-opacity:0.2;"/>
    </defs>
    <g clip-path="url(#pdc736bd7eb)">
     <use style="fill:#4c72b0;fill-opacity:0.2;stroke:#4c72b0;stroke-opacity:0.2;" x="0" xlink:href="#mf50763f743" y="345.6"/>
    </g>
   </g>
   <g id="PolyCollection_2">
    <defs>
     <path d="M 73.832727 -238.703443 
L 73.832727 -229.51457 
L 80.45833 -231.594975 
L 87.083933 -232.8649 
L 93.709536 -235.152503 
L 100.335139 -237.469054 
L 106.960742 -240.409503 
L 113.586345 -243.04502 
L 120.211948 -245.359286 
L 126.837551 -246.884871 
L 133.463154 -248.928853 
L 140.088757 -251.060583 
L 146.71436 -252.811387 
L 153.339963 -254.181933 
L 159.965566 -255.737378 
L 166.591169 -256.723554 
L 173.216772 -258.037769 
L 179.842375 -259.546214 
L 186.467978 -260.96473 
L 193.093581 -262.885495 
L 199.719184 -263.909654 
L 206.344787 -264.700952 
L 212.97039 -266.240486 
L 219.595993 -267.39791 
L 226.221596 -268.290185 
L 232.847199 -269.59298 
L 239.472801 -271.060366 
L 246.098404 -271.69152 
L 252.724007 -272.787118 
L 259.34961 -273.857694 
L 265.975213 -274.633709 
L 272.600816 -275.101022 
L 279.226419 -276.226138 
L 285.852022 -276.762288 
L 292.477625 -278.052018 
L 299.103228 -278.838551 
L 305.728831 -279.482376 
L 312.354434 -280.286235 
L 318.980037 -281.212551 
L 325.60564 -281.976825 
L 332.231243 -282.389508 
L 338.856846 -282.932527 
L 345.482449 -283.486472 
L 352.108052 -284.260119 
L 358.733655 -284.580251 
L 365.359258 -285.056184 
L 371.984861 -285.473546 
L 378.610464 -285.682191 
L 385.236067 -286.325919 
L 391.86167 -286.39035 
L 398.487273 -286.636974 
L 398.487273 -291.791032 
L 398.487273 -291.791032 
L 391.86167 -291.576989 
L 385.236067 -291.11348 
L 378.610464 -290.863585 
L 371.984861 -290.472128 
L 365.359258 -290.122006 
L 358.733655 -289.586474 
L 352.108052 -289.304565 
L 345.482449 -288.982959 
L 338.856846 -288.340058 
L 332.231243 -287.635977 
L 325.60564 -287.16418 
L 318.980037 -286.446978 
L 312.354434 -285.889207 
L 305.728831 -285.008886 
L 299.103228 -284.60565 
L 292.477625 -283.813343 
L 285.852022 -282.76258 
L 279.226419 -282.245709 
L 272.600816 -281.573959 
L 265.975213 -280.999175 
L 259.34961 -280.134551 
L 252.724007 -278.98409 
L 246.098404 -278.053395 
L 239.472801 -277.126651 
L 232.847199 -275.970788 
L 226.221596 -274.838836 
L 219.595993 -274.24688 
L 212.97039 -272.759012 
L 206.344787 -272.17907 
L 199.719184 -271.246887 
L 193.093581 -270.043959 
L 186.467978 -268.474299 
L 179.842375 -266.848777 
L 173.216772 -265.879197 
L 166.591169 -264.752149 
L 159.965566 -262.98866 
L 153.339963 -261.90582 
L 146.71436 -260.747259 
L 140.088757 -258.833101 
L 133.463154 -256.662312 
L 126.837551 -255.446875 
L 120.211948 -253.37678 
L 113.586345 -251.167454 
L 106.960742 -248.919159 
L 100.335139 -246.067918 
L 93.709536 -244.142546 
L 87.083933 -242.223037 
L 80.45833 -240.234511 
L 73.832727 -238.703443 
z
" id="mbc841e6573" style="stroke:#dd8452;stroke-opacity:0.2;"/>
    </defs>
    <g clip-path="url(#pdc736bd7eb)">
     <use style="fill:#dd8452;fill-opacity:0.2;stroke:#dd8452;stroke-opacity:0.2;" x="0" xlink:href="#mbc841e6573" y="345.6"/>
    </g>
   </g>
   <g id="PolyCollection_3">
    <defs>
     <path d="M 73.832727 -239.016337 
L 73.832727 -229.831732 
L 80.45833 -232.004557 
L 87.083933 -234.612163 
L 93.709536 -237.678776 
L 100.335139 -240.104533 
L 106.960742 -243.659058 
L 113.586345 -246.499257 
L 120.211948 -249.417065 
L 126.837551 -251.936108 
L 133.463154 -254.177143 
L 140.088757 -256.44167 
L 146.71436 -258.00172 
L 153.339963 -259.614019 
L 159.965566 -261.322098 
L 166.591169 -261.740481 
L 173.216772 -263.03272 
L 179.842375 -263.630724 
L 186.467978 -264.626334 
L 193.093581 -266.081151 
L 199.719184 -267.070053 
L 206.344787 -268.219567 
L 212.97039 -269.265977 
L 219.595993 -270.518674 
L 226.221596 -271.377514 
L 232.847199 -272.38798 
L 239.472801 -273.338462 
L 246.098404 -274.514797 
L 252.724007 -275.735095 
L 259.34961 -276.492515 
L 265.975213 -277.060228 
L 272.600816 -278.073314 
L 279.226419 -278.82822 
L 285.852022 -279.369928 
L 292.477625 -279.966676 
L 299.103228 -280.950275 
L 305.728831 -281.47288 
L 312.354434 -281.87845 
L 318.980037 -282.238961 
L 325.60564 -282.708321 
L 332.231243 -283.240635 
L 338.856846 -283.689848 
L 345.482449 -284.281282 
L 352.108052 -284.63745 
L 358.733655 -285.263148 
L 365.359258 -285.559647 
L 371.984861 -285.94536 
L 378.610464 -286.203348 
L 385.236067 -286.638114 
L 391.86167 -286.624109 
L 398.487273 -286.981401 
L 398.487273 -292.032 
L 398.487273 -292.032 
L 391.86167 -291.704321 
L 385.236067 -291.574568 
L 378.610464 -291.334878 
L 371.984861 -290.782706 
L 365.359258 -290.604728 
L 358.733655 -290.152416 
L 352.108052 -289.657232 
L 345.482449 -289.519263 
L 338.856846 -289.023505 
L 332.231243 -288.436564 
L 325.60564 -287.792499 
L 318.980037 -287.484437 
L 312.354434 -287.003076 
L 305.728831 -286.917281 
L 299.103228 -286.299585 
L 292.477625 -285.696333 
L 285.852022 -285.41324 
L 279.226419 -284.507689 
L 272.600816 -283.972794 
L 265.975213 -283.504065 
L 259.34961 -282.708618 
L 252.724007 -281.915856 
L 246.098404 -281.178462 
L 239.472801 -280.035367 
L 232.847199 -278.708736 
L 226.221596 -277.673338 
L 219.595993 -276.812386 
L 212.97039 -275.813689 
L 206.344787 -274.966122 
L 199.719184 -273.828984 
L 193.093581 -272.872908 
L 186.467978 -271.987574 
L 179.842375 -271.075801 
L 173.216772 -270.241277 
L 166.591169 -269.048681 
L 159.965566 -268.437464 
L 153.339963 -267.332309 
L 146.71436 -265.770655 
L 140.088757 -263.830802 
L 133.463154 -261.88726 
L 126.837551 -259.559798 
L 120.211948 -257.106468 
L 113.586345 -254.266484 
L 106.960742 -251.507925 
L 100.335139 -248.99337 
L 93.709536 -246.651066 
L 87.083933 -243.741307 
L 80.45833 -241.072227 
L 73.832727 -239.016337 
z
" id="md2e048fdc5" style="stroke:#55a868;stroke-opacity:0.2;"/>
    </defs>
    <g clip-path="url(#pdc736bd7eb)">
     <use style="fill:#55a868;fill-opacity:0.2;stroke:#55a868;stroke-opacity:0.2;" x="0" xlink:href="#md2e048fdc5" y="345.6"/>
    </g>
   </g>
   <g id="PolyCollection_4">
    <defs>
     <path d="M 73.832727 -74.71092 
L 73.832727 -54.345047 
L 80.45833 -52.725974 
L 87.083933 -51.889287 
L 93.709536 -50.112 
L 100.335139 -51.988982 
L 106.960742 -51.932278 
L 113.586345 -50.229583 
L 120.211948 -50.765779 
L 126.837551 -53.331725 
L 133.463154 -53.734414 
L 140.088757 -55.94443 
L 146.71436 -57.473398 
L 153.339963 -59.134115 
L 159.965566 -59.468012 
L 166.591169 -59.868585 
L 173.216772 -61.533093 
L 179.842375 -64.755228 
L 186.467978 -66.784828 
L 193.093581 -68.147524 
L 199.719184 -70.339349 
L 206.344787 -73.707975 
L 212.97039 -73.856387 
L 219.595993 -76.143776 
L 226.221596 -76.83796 
L 232.847199 -77.371156 
L 239.472801 -79.044121 
L 246.098404 -80.563604 
L 252.724007 -80.45229 
L 259.34961 -81.63445 
L 265.975213 -81.060922 
L 272.600816 -82.856713 
L 279.226419 -82.838761 
L 285.852022 -85.07478 
L 292.477625 -85.097935 
L 299.103228 -85.48673 
L 305.728831 -87.037828 
L 312.354434 -88.8407 
L 318.980037 -88.459512 
L 325.60564 -89.727287 
L 332.231243 -91.782266 
L 338.856846 -92.071549 
L 345.482449 -93.787396 
L 352.108052 -94.036987 
L 358.733655 -93.139271 
L 365.359258 -95.048452 
L 371.984861 -95.518097 
L 378.610464 -96.768024 
L 385.236067 -97.24529 
L 391.86167 -97.538831 
L 398.487273 -97.870799 
L 398.487273 -115.01631 
L 398.487273 -115.01631 
L 391.86167 -113.693281 
L 385.236067 -113.866076 
L 378.610464 -113.623911 
L 371.984861 -112.82595 
L 365.359258 -112.513865 
L 358.733655 -110.920329 
L 352.108052 -111.09394 
L 345.482449 -110.992155 
L 338.856846 -110.11932 
L 332.231243 -109.503706 
L 325.60564 -108.205145 
L 318.980037 -107.126928 
L 312.354434 -106.391634 
L 305.728831 -105.270524 
L 299.103228 -105.297978 
L 292.477625 -103.81866 
L 285.852022 -103.111231 
L 279.226419 -101.74816 
L 272.600816 -102.411826 
L 265.975213 -101.961702 
L 259.34961 -100.941445 
L 252.724007 -99.253357 
L 246.098404 -100.57971 
L 239.472801 -98.908267 
L 232.847199 -97.741344 
L 226.221596 -96.814642 
L 219.595993 -97.086136 
L 212.97039 -93.800577 
L 206.344787 -93.695934 
L 199.719184 -92.026424 
L 193.093581 -88.163052 
L 186.467978 -86.648599 
L 179.842375 -85.757408 
L 173.216772 -81.599332 
L 166.591169 -80.306818 
L 159.965566 -80.701366 
L 153.339963 -79.94148 
L 146.71436 -76.853542 
L 140.088757 -74.884589 
L 133.463154 -72.926112 
L 126.837551 -72.066185 
L 120.211948 -71.069888 
L 113.586345 -69.971158 
L 106.960742 -71.373877 
L 100.335139 -72.241565 
L 93.709536 -70.533693 
L 87.083933 -72.564841 
L 80.45833 -73.337724 
L 73.832727 -74.71092 
z
" id="m7c3903c9e7" style="stroke:#c44e52;stroke-opacity:0.2;"/>
    </defs>
    <g clip-path="url(#pdc736bd7eb)">
     <use style="fill:#c44e52;fill-opacity:0.2;stroke:#c44e52;stroke-opacity:0.2;" x="0" xlink:href="#m7c3903c9e7" y="345.6"/>
    </g>
   </g>
   <g id="line2d_12">
    <path clip-path="url(#pdc736bd7eb)" d="M 73.832727 109.893454 
L 80.45833 106.601387 
L 87.083933 102.196267 
L 93.709536 96.69891 
L 100.335139 90.997589 
L 106.960742 85.488443 
L 113.586345 79.85038 
L 120.211948 74.199213 
L 126.837551 69.013617 
L 133.463154 64.973503 
L 140.088757 62.020165 
L 146.71436 59.702855 
L 153.339963 57.955582 
L 159.965566 57.359705 
L 166.591169 57.127582 
L 173.216772 57.026933 
L 179.842375 56.869641 
L 186.467978 56.693249 
L 193.093581 56.634659 
L 199.719184 56.667594 
L 206.344787 57.17021 
L 212.97039 57.991111 
L 219.595993 58.669091 
L 226.221596 59.084852 
L 232.847199 59.136959 
L 239.472801 58.68631 
L 246.098404 58.261749 
L 252.724007 57.754058 
L 259.34961 57.444206 
L 265.975213 57.294306 
L 272.600816 57.319155 
L 279.226419 57.063729 
L 285.852022 57.238989 
L 292.477625 57.268154 
L 299.103228 57.331395 
L 305.728831 57.031373 
L 312.354434 56.737755 
L 318.980037 56.806319 
L 325.60564 56.678531 
L 332.231243 56.714076 
L 338.856846 56.66723 
L 345.482449 56.798215 
L 352.108052 56.806403 
L 358.733655 56.881487 
L 365.359258 56.933301 
L 371.984861 56.858818 
L 378.610464 56.711185 
L 385.236067 56.522315 
L 391.86167 56.299452 
L 398.487273 56.345317 
" style="fill:none;stroke:#4c72b0;stroke-linecap:round;stroke-width:1.5;"/>
   </g>
   <g id="line2d_13">
    <path clip-path="url(#pdc736bd7eb)" d="M 73.832727 111.302295 
L 80.45833 109.848603 
L 87.083933 107.931575 
L 93.709536 105.842382 
L 100.335139 103.569069 
L 106.960742 100.922332 
L 113.586345 98.51495 
L 120.211948 96.38963 
L 126.837551 94.463254 
L 133.463154 92.681937 
L 140.088757 90.773254 
L 146.71436 88.967584 
L 153.339963 87.520125 
L 159.965566 86.026034 
L 166.591169 84.790667 
L 173.216772 83.579216 
L 179.842375 82.220906 
L 186.467978 80.799651 
L 193.093581 79.260704 
L 199.719184 78.062481 
L 206.344787 76.957066 
L 212.97039 76.032444 
L 219.595993 74.997245 
L 226.221596 74.015956 
L 232.847199 72.778519 
L 239.472801 71.632914 
L 246.098404 70.620672 
L 252.724007 69.618446 
L 259.34961 68.672178 
L 265.975213 67.896365 
L 272.600816 67.208481 
L 279.226419 66.549227 
L 285.852022 65.754936 
L 292.477625 64.801369 
L 299.103228 63.944534 
L 305.728831 63.222895 
L 312.354434 62.454861 
L 318.980037 61.75015 
L 325.60564 61.101151 
L 332.231243 60.520172 
L 338.856846 59.962414 
L 345.482449 59.453698 
L 352.108052 58.866828 
L 358.733655 58.389224 
L 365.359258 58.054288 
L 371.984861 57.63542 
L 378.610464 57.213278 
L 385.236067 56.84917 
L 391.86167 56.579506 
L 398.487273 56.328855 
" style="fill:none;stroke:#dd8452;stroke-linecap:round;stroke-width:1.5;"/>
   </g>
   <g id="line2d_14">
    <path clip-path="url(#pdc736bd7eb)" d="M 73.832727 110.946389 
L 80.45833 109.02736 
L 87.083933 106.453148 
L 93.709536 103.628341 
L 100.335139 100.784163 
L 106.960742 97.913519 
L 113.586345 95.134221 
L 120.211948 92.423519 
L 126.837551 89.733072 
L 133.463154 87.517263 
L 140.088757 85.547302 
L 146.71436 83.69509 
L 153.339963 82.27094 
L 159.965566 80.930516 
L 166.591169 80.03257 
L 173.216772 79.069619 
L 179.842375 78.177476 
L 186.467978 77.213362 
L 193.093581 76.141078 
L 199.719184 75.135275 
L 206.344787 73.984197 
L 212.97039 72.996216 
L 219.595993 71.913933 
L 226.221596 71.002424 
L 232.847199 69.843859 
L 239.472801 68.702826 
L 246.098404 67.766059 
L 252.724007 66.956177 
L 259.34961 66.014769 
L 265.975213 65.393551 
L 272.600816 64.666886 
L 279.226419 64.022718 
L 285.852022 63.304875 
L 292.477625 62.642592 
L 299.103228 61.989186 
L 305.728831 61.500062 
L 312.354434 61.119613 
L 318.980037 60.76324 
L 325.60564 60.308027 
L 332.231243 59.784529 
L 338.856846 59.268785 
L 345.482449 58.774899 
L 352.108052 58.379652 
L 358.733655 57.953083 
L 365.359258 57.577737 
L 371.984861 57.077123 
L 378.610464 56.802162 
L 385.236067 56.404023 
L 391.86167 56.314844 
L 398.487273 56.185864 
" style="fill:none;stroke:#55a868;stroke-linecap:round;stroke-width:1.5;"/>
   </g>
   <g id="line2d_15">
    <path clip-path="url(#pdc736bd7eb)" d="M 73.832727 281.000594 
L 80.45833 282.224799 
L 87.083933 283.402261 
L 93.709536 284.976179 
L 100.335139 283.286129 
L 106.960742 283.854217 
L 113.586345 285.526123 
L 120.211948 284.347734 
L 126.837551 282.807069 
L 133.463154 282.234823 
L 140.088757 280.097885 
L 146.71436 277.854041 
L 153.339963 276.53595 
L 159.965566 276.439909 
L 166.591169 274.894064 
L 173.216772 273.753102 
L 179.842375 270.809747 
L 186.467978 269.00347 
L 193.093581 267.140045 
L 199.719184 264.877174 
L 206.344787 261.774505 
L 212.97039 261.365784 
L 219.595993 258.964343 
L 226.221596 258.639818 
L 232.847199 257.67653 
L 239.472801 256.522539 
L 246.098404 255.678793 
L 252.724007 255.224297 
L 259.34961 254.703191 
L 265.975213 254.12317 
L 272.600816 253.722001 
L 279.226419 252.823827 
L 285.852022 251.5382 
L 292.477625 250.772479 
L 299.103228 250.138438 
L 305.728831 249.226194 
L 312.354434 248.471533 
L 318.980037 247.659026 
L 325.60564 246.593813 
L 332.231243 245.194398 
L 338.856846 244.361462 
L 345.482449 243.489012 
L 352.108052 242.722796 
L 358.733655 242.957715 
L 365.359258 241.847473 
L 371.984861 241.365833 
L 378.610464 240.657136 
L 385.236067 239.853885 
L 391.86167 239.958454 
L 398.487273 239.109132 
" style="fill:none;stroke:#c44e52;stroke-linecap:round;stroke-width:1.5;"/>
   </g>
   <g id="line2d_16"/>
   <g id="line2d_17"/>
   <g id="line2d_18"/>
   <g id="line2d_19"/>
   <g id="patch_3">
    <path d="M 57.6 307.584 
L 57.6 41.472 
" style="fill:none;stroke:#ffffff;stroke-linecap:square;stroke-linejoin:miter;stroke-width:1.25;"/>
   </g>
   <g id="patch_4">
    <path d="M 414.72 307.584 
L 414.72 41.472 
" style="fill:none;stroke:#ffffff;stroke-linecap:square;stroke-linejoin:miter;stroke-width:1.25;"/>
   </g>
   <g id="patch_5">
    <path d="M 57.6 307.584 
L 414.72 307.584 
" style="fill:none;stroke:#ffffff;stroke-linecap:square;stroke-linejoin:miter;stroke-width:1.25;"/>
   </g>
   <g id="patch_6">
    <path d="M 57.6 41.472 
L 414.72 41.472 
" style="fill:none;stroke:#ffffff;stroke-linecap:square;stroke-linejoin:miter;stroke-width:1.25;"/>
   </g>
   <g id="text_13">
    <!-- Navigation -->
    <g style="fill:#262626;" transform="translate(203.7975 35.472)scale(0.12 -0.12)">
     <defs>
      <path d="M 628 4666 
L 1478 4666 
L 3547 763 
L 3547 4666 
L 4159 4666 
L 4159 0 
L 3309 0 
L 1241 3903 
L 1241 0 
L 628 0 
L 628 4666 
z
" id="DejaVuSans-4e" transform="scale(0.015625)"/>
      <path d="M 2194 1759 
Q 1497 1759 1228 1600 
Q 959 1441 959 1056 
Q 959 750 1161 570 
Q 1363 391 1709 391 
Q 2188 391 2477 730 
Q 2766 1069 2766 1631 
L 2766 1759 
L 2194 1759 
z
M 3341 1997 
L 3341 0 
L 2766 0 
L 2766 531 
Q 2569 213 2275 61 
Q 1981 -91 1556 -91 
Q 1019 -91 701 211 
Q 384 513 384 1019 
Q 384 1609 779 1909 
Q 1175 2209 1959 2209 
L 2766 2209 
L 2766 2266 
Q 2766 2663 2505 2880 
Q 2244 3097 1772 3097 
Q 1472 3097 1187 3025 
Q 903 2953 641 2809 
L 641 3341 
Q 956 3463 1253 3523 
Q 1550 3584 1831 3584 
Q 2591 3584 2966 3190 
Q 3341 2797 3341 1997 
z
" id="DejaVuSans-61" transform="scale(0.015625)"/>
      <path d="M 191 3500 
L 800 3500 
L 1894 563 
L 2988 3500 
L 3597 3500 
L 2284 0 
L 1503 0 
L 191 3500 
z
" id="DejaVuSans-76" transform="scale(0.015625)"/>
      <path d="M 2906 1791 
Q 2906 2416 2648 2759 
Q 2391 3103 1925 3103 
Q 1463 3103 1205 2759 
Q 947 2416 947 1791 
Q 947 1169 1205 825 
Q 1463 481 1925 481 
Q 2391 481 2648 825 
Q 2906 1169 2906 1791 
z
M 3481 434 
Q 3481 -459 3084 -895 
Q 2688 -1331 1869 -1331 
Q 1566 -1331 1297 -1286 
Q 1028 -1241 775 -1147 
L 775 -588 
Q 1028 -725 1275 -790 
Q 1522 -856 1778 -856 
Q 2344 -856 2625 -561 
Q 2906 -266 2906 331 
L 2906 616 
Q 2728 306 2450 153 
Q 2172 0 1784 0 
Q 1141 0 747 490 
Q 353 981 353 1791 
Q 353 2603 747 3093 
Q 1141 3584 1784 3584 
Q 2172 3584 2450 3431 
Q 2728 3278 2906 2969 
L 2906 3500 
L 3481 3500 
L 3481 434 
z
" id="DejaVuSans-67" transform="scale(0.015625)"/>
      <path d="M 1959 3097 
Q 1497 3097 1228 2736 
Q 959 2375 959 1747 
Q 959 1119 1226 758 
Q 1494 397 1959 397 
Q 2419 397 2687 759 
Q 2956 1122 2956 1747 
Q 2956 2369 2687 2733 
Q 2419 3097 1959 3097 
z
M 1959 3584 
Q 2709 3584 3137 3096 
Q 3566 2609 3566 1747 
Q 3566 888 3137 398 
Q 2709 -91 1959 -91 
Q 1206 -91 779 398 
Q 353 888 353 1747 
Q 353 2609 779 3096 
Q 1206 3584 1959 3584 
z
" id="DejaVuSans-6f" transform="scale(0.015625)"/>
      <path d="M 3513 2113 
L 3513 0 
L 2938 0 
L 2938 2094 
Q 2938 2591 2744 2837 
Q 2550 3084 2163 3084 
Q 1697 3084 1428 2787 
Q 1159 2491 1159 1978 
L 1159 0 
L 581 0 
L 581 3500 
L 1159 3500 
L 1159 2956 
Q 1366 3272 1645 3428 
Q 1925 3584 2291 3584 
Q 2894 3584 3203 3211 
Q 3513 2838 3513 2113 
z
" id="DejaVuSans-6e" transform="scale(0.015625)"/>
     </defs>
     <use xlink:href="#DejaVuSans-4e"/>
     <use x="74.804688" xlink:href="#DejaVuSans-61"/>
     <use x="136.083984" xlink:href="#DejaVuSans-76"/>
     <use x="195.263672" xlink:href="#DejaVuSans-69"/>
     <use x="223.046875" xlink:href="#DejaVuSans-67"/>
     <use x="286.523438" xlink:href="#DejaVuSans-61"/>
     <use x="347.802734" xlink:href="#DejaVuSans-74"/>
     <use x="387.011719" xlink:href="#DejaVuSans-69"/>
     <use x="414.794922" xlink:href="#DejaVuSans-6f"/>
     <use x="475.976562" xlink:href="#DejaVuSans-6e"/>
    </g>
   </g>
  </g>
 </g>
 <defs>
  <clipPath id="pdc736bd7eb">
   <rect height="266.112" width="357.12" x="57.6" y="41.472"/>
  </clipPath>
 </defs>
</svg>
