<?xml version="1.0" encoding="utf-8" standalone="no"?>
<!DOCTYPE svg PUBLIC "-//W3C//DTD SVG 1.1//EN"
  "http://www.w3.org/Graphics/SVG/1.1/DTD/svg11.dtd">
<svg height="345.6pt" version="1.1" viewBox="0 0 460.8 345.6" width="460.8pt" xmlns="http://www.w3.org/2000/svg" xmlns:xlink="http://www.w3.org/1999/xlink">
 <metadata>
  <rdf:RDF xmlns:cc="http://creativecommons.org/ns#" xmlns:dc="http://purl.org/dc/elements/1.1/" xmlns:rdf="http://www.w3.org/1999/02/22-rdf-syntax-ns#">
   <cc:Work>
    <dc:type rdf:resource="http://purl.org/dc/dcmitype/StillImage"/>
    <dc:date>2022-02-09T22:34:58.463420</dc:date>
    <dc:format>image/svg+xml</dc:format>
    <dc:creator>
     <cc:Agent>
      <dc:title>Matplotlib v3.4.3, https://matplotlib.org/</dc:title>
     </cc:Agent>
    </dc:creator>
   </cc:Work>
  </rdf:RDF>
 </metadata>
 <defs>
  <style type="text/css">*{stroke-linecap:butt;stroke-linejoin:round;}</style>
 </defs>
 <g id="figure_1">
  <g id="patch_1">
   <path d="M 0 345.6 
L 460.8 345.6 
L 460.8 0 
L 0 0 
z
" style="fill:#ffffff;"/>
  </g>
  <g id="axes_1">
   <g id="patch_2">
    <path d="M 57.6 307.584 
L 414.72 307.584 
L 414.72 41.472 
L 57.6 41.472 
z
" style="fill:#eaeaf2;"/>
   </g>
   <g id="matplotlib.axis_1">
    <g id="xtick_1">
     <g id="line2d_1">
      <path clip-path="url(#pdb0c591428)" d="M 73.832727 307.584 
L 73.832727 41.472 
" style="fill:none;stroke:#ffffff;stroke-linecap:round;"/>
     </g>
     <g id="text_1">
      <!-- 0 -->
      <g style="fill:#262626;" transform="translate(70.333352 325.442281)scale(0.11 -0.11)">
       <defs>
        <path d="M 2034 4250 
Q 1547 4250 1301 3770 
Q 1056 3291 1056 2328 
Q 1056 1369 1301 889 
Q 1547 409 2034 409 
Q 2525 409 2770 889 
Q 3016 1369 3016 2328 
Q 3016 3291 2770 3770 
Q 2525 4250 2034 4250 
z
M 2034 4750 
Q 2819 4750 3233 4129 
Q 3647 3509 3647 2328 
Q 3647 1150 3233 529 
Q 2819 -91 2034 -91 
Q 1250 -91 836 529 
Q 422 1150 422 2328 
Q 422 3509 836 4129 
Q 1250 4750 2034 4750 
z
" id="DejaVuSans-30" transform="scale(0.015625)"/>
       </defs>
       <use xlink:href="#DejaVuSans-30"/>
      </g>
     </g>
    </g>
    <g id="xtick_2">
     <g id="line2d_2">
      <path clip-path="url(#pdb0c591428)" d="M 140.088757 307.584 
L 140.088757 41.472 
" style="fill:none;stroke:#ffffff;stroke-linecap:round;"/>
     </g>
     <g id="text_2">
      <!-- 10 -->
      <g style="fill:#262626;" transform="translate(133.090007 325.442281)scale(0.11 -0.11)">
       <defs>
        <path d="M 794 531 
L 1825 531 
L 1825 4091 
L 703 3866 
L 703 4441 
L 1819 4666 
L 2450 4666 
L 2450 531 
L 3481 531 
L 3481 0 
L 794 0 
L 794 531 
z
" id="DejaVuSans-31" transform="scale(0.015625)"/>
       </defs>
       <use xlink:href="#DejaVuSans-31"/>
       <use x="63.623047" xlink:href="#DejaVuSans-30"/>
      </g>
     </g>
    </g>
    <g id="xtick_3">
     <g id="line2d_3">
      <path clip-path="url(#pdb0c591428)" d="M 206.344787 307.584 
L 206.344787 41.472 
" style="fill:none;stroke:#ffffff;stroke-linecap:round;"/>
     </g>
     <g id="text_3">
      <!-- 20 -->
      <g style="fill:#262626;" transform="translate(199.346037 325.442281)scale(0.11 -0.11)">
       <defs>
        <path d="M 1228 531 
L 3431 531 
L 3431 0 
L 469 0 
L 469 531 
Q 828 903 1448 1529 
Q 2069 2156 2228 2338 
Q 2531 2678 2651 2914 
Q 2772 3150 2772 3378 
Q 2772 3750 2511 3984 
Q 2250 4219 1831 4219 
Q 1534 4219 1204 4116 
Q 875 4013 500 3803 
L 500 4441 
Q 881 4594 1212 4672 
Q 1544 4750 1819 4750 
Q 2544 4750 2975 4387 
Q 3406 4025 3406 3419 
Q 3406 3131 3298 2873 
Q 3191 2616 2906 2266 
Q 2828 2175 2409 1742 
Q 1991 1309 1228 531 
z
" id="DejaVuSans-32" transform="scale(0.015625)"/>
       </defs>
       <use xlink:href="#DejaVuSans-32"/>
       <use x="63.623047" xlink:href="#DejaVuSans-30"/>
      </g>
     </g>
    </g>
    <g id="xtick_4">
     <g id="line2d_4">
      <path clip-path="url(#pdb0c591428)" d="M 272.600816 307.584 
L 272.600816 41.472 
" style="fill:none;stroke:#ffffff;stroke-linecap:round;"/>
     </g>
     <g id="text_4">
      <!-- 30 -->
      <g style="fill:#262626;" transform="translate(265.602066 325.442281)scale(0.11 -0.11)">
       <defs>
        <path d="M 2597 2516 
Q 3050 2419 3304 2112 
Q 3559 1806 3559 1356 
Q 3559 666 3084 287 
Q 2609 -91 1734 -91 
Q 1441 -91 1130 -33 
Q 819 25 488 141 
L 488 750 
Q 750 597 1062 519 
Q 1375 441 1716 441 
Q 2309 441 2620 675 
Q 2931 909 2931 1356 
Q 2931 1769 2642 2001 
Q 2353 2234 1838 2234 
L 1294 2234 
L 1294 2753 
L 1863 2753 
Q 2328 2753 2575 2939 
Q 2822 3125 2822 3475 
Q 2822 3834 2567 4026 
Q 2313 4219 1838 4219 
Q 1578 4219 1281 4162 
Q 984 4106 628 3988 
L 628 4550 
Q 988 4650 1302 4700 
Q 1616 4750 1894 4750 
Q 2613 4750 3031 4423 
Q 3450 4097 3450 3541 
Q 3450 3153 3228 2886 
Q 3006 2619 2597 2516 
z
" id="DejaVuSans-33" transform="scale(0.015625)"/>
       </defs>
       <use xlink:href="#DejaVuSans-33"/>
       <use x="63.623047" xlink:href="#DejaVuSans-30"/>
      </g>
     </g>
    </g>
    <g id="xtick_5">
     <g id="line2d_5">
      <path clip-path="url(#pdb0c591428)" d="M 338.856846 307.584 
L 338.856846 41.472 
" style="fill:none;stroke:#ffffff;stroke-linecap:round;"/>
     </g>
     <g id="text_5">
      <!-- 40 -->
      <g style="fill:#262626;" transform="translate(331.858096 325.442281)scale(0.11 -0.11)">
       <defs>
        <path d="M 2419 4116 
L 825 1625 
L 2419 1625 
L 2419 4116 
z
M 2253 4666 
L 3047 4666 
L 3047 1625 
L 3713 1625 
L 3713 1100 
L 3047 1100 
L 3047 0 
L 2419 0 
L 2419 1100 
L 313 1100 
L 313 1709 
L 2253 4666 
z
" id="DejaVuSans-34" transform="scale(0.015625)"/>
       </defs>
       <use xlink:href="#DejaVuSans-34"/>
       <use x="63.623047" xlink:href="#DejaVuSans-30"/>
      </g>
     </g>
    </g>
    <g id="xtick_6">
     <g id="line2d_6">
      <path clip-path="url(#pdb0c591428)" d="M 405.112876 307.584 
L 405.112876 41.472 
" style="fill:none;stroke:#ffffff;stroke-linecap:round;"/>
     </g>
     <g id="text_6">
      <!-- 50 -->
      <g style="fill:#262626;" transform="translate(398.114126 325.442281)scale(0.11 -0.11)">
       <defs>
        <path d="M 691 4666 
L 3169 4666 
L 3169 4134 
L 1269 4134 
L 1269 2991 
Q 1406 3038 1543 3061 
Q 1681 3084 1819 3084 
Q 2600 3084 3056 2656 
Q 3513 2228 3513 1497 
Q 3513 744 3044 326 
Q 2575 -91 1722 -91 
Q 1428 -91 1123 -41 
Q 819 9 494 109 
L 494 744 
Q 775 591 1075 516 
Q 1375 441 1709 441 
Q 2250 441 2565 725 
Q 2881 1009 2881 1497 
Q 2881 1984 2565 2268 
Q 2250 2553 1709 2553 
Q 1456 2553 1204 2497 
Q 953 2441 691 2322 
L 691 4666 
z
" id="DejaVuSans-35" transform="scale(0.015625)"/>
       </defs>
       <use xlink:href="#DejaVuSans-35"/>
       <use x="63.623047" xlink:href="#DejaVuSans-30"/>
      </g>
     </g>
    </g>
    <g id="text_7">
     <!-- Time Steps -->
     <g style="fill:#262626;" transform="translate(202.785 340.848062)scale(0.12 -0.12)">
      <defs>
       <path d="M -19 4666 
L 3928 4666 
L 3928 4134 
L 2272 4134 
L 2272 0 
L 1638 0 
L 1638 4134 
L -19 4134 
L -19 4666 
z
" id="DejaVuSans-54" transform="scale(0.015625)"/>
       <path d="M 603 3500 
L 1178 3500 
L 1178 0 
L 603 0 
L 603 3500 
z
M 603 4863 
L 1178 4863 
L 1178 4134 
L 603 4134 
L 603 4863 
z
" id="DejaVuSans-69" transform="scale(0.015625)"/>
       <path d="M 3328 2828 
Q 3544 3216 3844 3400 
Q 4144 3584 4550 3584 
Q 5097 3584 5394 3201 
Q 5691 2819 5691 2113 
L 5691 0 
L 5113 0 
L 5113 2094 
Q 5113 2597 4934 2840 
Q 4756 3084 4391 3084 
Q 3944 3084 3684 2787 
Q 3425 2491 3425 1978 
L 3425 0 
L 2847 0 
L 2847 2094 
Q 2847 2600 2669 2842 
Q 2491 3084 2119 3084 
Q 1678 3084 1418 2786 
Q 1159 2488 1159 1978 
L 1159 0 
L 581 0 
L 581 3500 
L 1159 3500 
L 1159 2956 
Q 1356 3278 1631 3431 
Q 1906 3584 2284 3584 
Q 2666 3584 2933 3390 
Q 3200 3197 3328 2828 
z
" id="DejaVuSans-6d" transform="scale(0.015625)"/>
       <path d="M 3597 1894 
L 3597 1613 
L 953 1613 
Q 991 1019 1311 708 
Q 1631 397 2203 397 
Q 2534 397 2845 478 
Q 3156 559 3463 722 
L 3463 178 
Q 3153 47 2828 -22 
Q 2503 -91 2169 -91 
Q 1331 -91 842 396 
Q 353 884 353 1716 
Q 353 2575 817 3079 
Q 1281 3584 2069 3584 
Q 2775 3584 3186 3129 
Q 3597 2675 3597 1894 
z
M 3022 2063 
Q 3016 2534 2758 2815 
Q 2500 3097 2075 3097 
Q 1594 3097 1305 2825 
Q 1016 2553 972 2059 
L 3022 2063 
z
" id="DejaVuSans-65" transform="scale(0.015625)"/>
       <path id="DejaVuSans-20" transform="scale(0.015625)"/>
       <path d="M 3425 4513 
L 3425 3897 
Q 3066 4069 2747 4153 
Q 2428 4238 2131 4238 
Q 1616 4238 1336 4038 
Q 1056 3838 1056 3469 
Q 1056 3159 1242 3001 
Q 1428 2844 1947 2747 
L 2328 2669 
Q 3034 2534 3370 2195 
Q 3706 1856 3706 1288 
Q 3706 609 3251 259 
Q 2797 -91 1919 -91 
Q 1588 -91 1214 -16 
Q 841 59 441 206 
L 441 856 
Q 825 641 1194 531 
Q 1563 422 1919 422 
Q 2459 422 2753 634 
Q 3047 847 3047 1241 
Q 3047 1584 2836 1778 
Q 2625 1972 2144 2069 
L 1759 2144 
Q 1053 2284 737 2584 
Q 422 2884 422 3419 
Q 422 4038 858 4394 
Q 1294 4750 2059 4750 
Q 2388 4750 2728 4690 
Q 3069 4631 3425 4513 
z
" id="DejaVuSans-53" transform="scale(0.015625)"/>
       <path d="M 1172 4494 
L 1172 3500 
L 2356 3500 
L 2356 3053 
L 1172 3053 
L 1172 1153 
Q 1172 725 1289 603 
Q 1406 481 1766 481 
L 2356 481 
L 2356 0 
L 1766 0 
Q 1100 0 847 248 
Q 594 497 594 1153 
L 594 3053 
L 172 3053 
L 172 3500 
L 594 3500 
L 594 4494 
L 1172 4494 
z
" id="DejaVuSans-74" transform="scale(0.015625)"/>
       <path d="M 1159 525 
L 1159 -1331 
L 581 -1331 
L 581 3500 
L 1159 3500 
L 1159 2969 
Q 1341 3281 1617 3432 
Q 1894 3584 2278 3584 
Q 2916 3584 3314 3078 
Q 3713 2572 3713 1747 
Q 3713 922 3314 415 
Q 2916 -91 2278 -91 
Q 1894 -91 1617 61 
Q 1341 213 1159 525 
z
M 3116 1747 
Q 3116 2381 2855 2742 
Q 2594 3103 2138 3103 
Q 1681 3103 1420 2742 
Q 1159 2381 1159 1747 
Q 1159 1113 1420 752 
Q 1681 391 2138 391 
Q 2594 391 2855 752 
Q 3116 1113 3116 1747 
z
" id="DejaVuSans-70" transform="scale(0.015625)"/>
       <path d="M 2834 3397 
L 2834 2853 
Q 2591 2978 2328 3040 
Q 2066 3103 1784 3103 
Q 1356 3103 1142 2972 
Q 928 2841 928 2578 
Q 928 2378 1081 2264 
Q 1234 2150 1697 2047 
L 1894 2003 
Q 2506 1872 2764 1633 
Q 3022 1394 3022 966 
Q 3022 478 2636 193 
Q 2250 -91 1575 -91 
Q 1294 -91 989 -36 
Q 684 19 347 128 
L 347 722 
Q 666 556 975 473 
Q 1284 391 1588 391 
Q 1994 391 2212 530 
Q 2431 669 2431 922 
Q 2431 1156 2273 1281 
Q 2116 1406 1581 1522 
L 1381 1569 
Q 847 1681 609 1914 
Q 372 2147 372 2553 
Q 372 3047 722 3315 
Q 1072 3584 1716 3584 
Q 2034 3584 2315 3537 
Q 2597 3491 2834 3397 
z
" id="DejaVuSans-73" transform="scale(0.015625)"/>
      </defs>
      <use xlink:href="#DejaVuSans-54"/>
      <use x="57.958984" xlink:href="#DejaVuSans-69"/>
      <use x="85.742188" xlink:href="#DejaVuSans-6d"/>
      <use x="183.154297" xlink:href="#DejaVuSans-65"/>
      <use x="244.677734" xlink:href="#DejaVuSans-20"/>
      <use x="276.464844" xlink:href="#DejaVuSans-53"/>
      <use x="339.941406" xlink:href="#DejaVuSans-74"/>
      <use x="379.150391" xlink:href="#DejaVuSans-65"/>
      <use x="440.673828" xlink:href="#DejaVuSans-70"/>
      <use x="504.150391" xlink:href="#DejaVuSans-73"/>
     </g>
    </g>
   </g>
   <g id="matplotlib.axis_2">
    <g id="ytick_1">
     <g id="line2d_7">
      <path clip-path="url(#pdb0c591428)" d="M 57.6 295.488 
L 414.72 295.488 
" style="fill:none;stroke:#ffffff;stroke-linecap:round;"/>
     </g>
     <g id="text_8">
      <!-- 0.0 -->
      <g style="fill:#262626;" transform="translate(30.606563 299.667141)scale(0.11 -0.11)">
       <defs>
        <path d="M 684 794 
L 1344 794 
L 1344 0 
L 684 0 
L 684 794 
z
" id="DejaVuSans-2e" transform="scale(0.015625)"/>
       </defs>
       <use xlink:href="#DejaVuSans-30"/>
       <use x="63.623047" xlink:href="#DejaVuSans-2e"/>
       <use x="95.410156" xlink:href="#DejaVuSans-30"/>
      </g>
     </g>
    </g>
    <g id="ytick_2">
     <g id="line2d_8">
      <path clip-path="url(#pdb0c591428)" d="M 57.6 247.231067 
L 414.72 247.231067 
" style="fill:none;stroke:#ffffff;stroke-linecap:round;"/>
     </g>
     <g id="text_9">
      <!-- 0.5 -->
      <g style="fill:#262626;" transform="translate(30.606563 251.410207)scale(0.11 -0.11)">
       <use xlink:href="#DejaVuSans-30"/>
       <use x="63.623047" xlink:href="#DejaVuSans-2e"/>
       <use x="95.410156" xlink:href="#DejaVuSans-35"/>
      </g>
     </g>
    </g>
    <g id="ytick_3">
     <g id="line2d_9">
      <path clip-path="url(#pdb0c591428)" d="M 57.6 198.974134 
L 414.72 198.974134 
" style="fill:none;stroke:#ffffff;stroke-linecap:round;"/>
     </g>
     <g id="text_10">
      <!-- 1.0 -->
      <g style="fill:#262626;" transform="translate(30.606563 203.153274)scale(0.11 -0.11)">
       <use xlink:href="#DejaVuSans-31"/>
       <use x="63.623047" xlink:href="#DejaVuSans-2e"/>
       <use x="95.410156" xlink:href="#DejaVuSans-30"/>
      </g>
     </g>
    </g>
    <g id="ytick_4">
     <g id="line2d_10">
      <path clip-path="url(#pdb0c591428)" d="M 57.6 150.7172 
L 414.72 150.7172 
" style="fill:none;stroke:#ffffff;stroke-linecap:round;"/>
     </g>
     <g id="text_11">
      <!-- 1.5 -->
      <g style="fill:#262626;" transform="translate(30.606563 154.896341)scale(0.11 -0.11)">
       <use xlink:href="#DejaVuSans-31"/>
       <use x="63.623047" xlink:href="#DejaVuSans-2e"/>
       <use x="95.410156" xlink:href="#DejaVuSans-35"/>
      </g>
     </g>
    </g>
    <g id="ytick_5">
     <g id="line2d_11">
      <path clip-path="url(#pdb0c591428)" d="M 57.6 102.460267 
L 414.72 102.460267 
" style="fill:none;stroke:#ffffff;stroke-linecap:round;"/>
     </g>
     <g id="text_12">
      <!-- 2.0 -->
      <g style="fill:#262626;" transform="translate(30.606563 106.639408)scale(0.11 -0.11)">
       <use xlink:href="#DejaVuSans-32"/>
       <use x="63.623047" xlink:href="#DejaVuSans-2e"/>
       <use x="95.410156" xlink:href="#DejaVuSans-30"/>
      </g>
     </g>
    </g>
    <g id="ytick_6">
     <g id="line2d_12">
      <path clip-path="url(#pdb0c591428)" d="M 57.6 54.203334 
L 414.72 54.203334 
" style="fill:none;stroke:#ffffff;stroke-linecap:round;"/>
     </g>
     <g id="text_13">
      <!-- 2.5 -->
      <g style="fill:#262626;" transform="translate(30.606563 58.382475)scale(0.11 -0.11)">
       <use xlink:href="#DejaVuSans-32"/>
       <use x="63.623047" xlink:href="#DejaVuSans-2e"/>
       <use x="95.410156" xlink:href="#DejaVuSans-35"/>
      </g>
     </g>
    </g>
    <g id="text_14">
     <!-- Reward -->
     <g style="fill:#262626;" transform="translate(24.110937 196.873312)rotate(-90)scale(0.12 -0.12)">
      <defs>
       <path d="M 2841 2188 
Q 3044 2119 3236 1894 
Q 3428 1669 3622 1275 
L 4263 0 
L 3584 0 
L 2988 1197 
Q 2756 1666 2539 1819 
Q 2322 1972 1947 1972 
L 1259 1972 
L 1259 0 
L 628 0 
L 628 4666 
L 2053 4666 
Q 2853 4666 3247 4331 
Q 3641 3997 3641 3322 
Q 3641 2881 3436 2590 
Q 3231 2300 2841 2188 
z
M 1259 4147 
L 1259 2491 
L 2053 2491 
Q 2509 2491 2742 2702 
Q 2975 2913 2975 3322 
Q 2975 3731 2742 3939 
Q 2509 4147 2053 4147 
L 1259 4147 
z
" id="DejaVuSans-52" transform="scale(0.015625)"/>
       <path d="M 269 3500 
L 844 3500 
L 1563 769 
L 2278 3500 
L 2956 3500 
L 3675 769 
L 4391 3500 
L 4966 3500 
L 4050 0 
L 3372 0 
L 2619 2869 
L 1863 0 
L 1184 0 
L 269 3500 
z
" id="DejaVuSans-77" transform="scale(0.015625)"/>
       <path d="M 2194 1759 
Q 1497 1759 1228 1600 
Q 959 1441 959 1056 
Q 959 750 1161 570 
Q 1363 391 1709 391 
Q 2188 391 2477 730 
Q 2766 1069 2766 1631 
L 2766 1759 
L 2194 1759 
z
M 3341 1997 
L 3341 0 
L 2766 0 
L 2766 531 
Q 2569 213 2275 61 
Q 1981 -91 1556 -91 
Q 1019 -91 701 211 
Q 384 513 384 1019 
Q 384 1609 779 1909 
Q 1175 2209 1959 2209 
L 2766 2209 
L 2766 2266 
Q 2766 2663 2505 2880 
Q 2244 3097 1772 3097 
Q 1472 3097 1187 3025 
Q 903 2953 641 2809 
L 641 3341 
Q 956 3463 1253 3523 
Q 1550 3584 1831 3584 
Q 2591 3584 2966 3190 
Q 3341 2797 3341 1997 
z
" id="DejaVuSans-61" transform="scale(0.015625)"/>
       <path d="M 2631 2963 
Q 2534 3019 2420 3045 
Q 2306 3072 2169 3072 
Q 1681 3072 1420 2755 
Q 1159 2438 1159 1844 
L 1159 0 
L 581 0 
L 581 3500 
L 1159 3500 
L 1159 2956 
Q 1341 3275 1631 3429 
Q 1922 3584 2338 3584 
Q 2397 3584 2469 3576 
Q 2541 3569 2628 3553 
L 2631 2963 
z
" id="DejaVuSans-72" transform="scale(0.015625)"/>
       <path d="M 2906 2969 
L 2906 4863 
L 3481 4863 
L 3481 0 
L 2906 0 
L 2906 525 
Q 2725 213 2448 61 
Q 2172 -91 1784 -91 
Q 1150 -91 751 415 
Q 353 922 353 1747 
Q 353 2572 751 3078 
Q 1150 3584 1784 3584 
Q 2172 3584 2448 3432 
Q 2725 3281 2906 2969 
z
M 947 1747 
Q 947 1113 1208 752 
Q 1469 391 1925 391 
Q 2381 391 2643 752 
Q 2906 1113 2906 1747 
Q 2906 2381 2643 2742 
Q 2381 3103 1925 3103 
Q 1469 3103 1208 2742 
Q 947 2381 947 1747 
z
" id="DejaVuSans-64" transform="scale(0.015625)"/>
      </defs>
      <use xlink:href="#DejaVuSans-52"/>
      <use x="64.982422" xlink:href="#DejaVuSans-65"/>
      <use x="126.505859" xlink:href="#DejaVuSans-77"/>
      <use x="208.292969" xlink:href="#DejaVuSans-61"/>
      <use x="269.572266" xlink:href="#DejaVuSans-72"/>
      <use x="308.935547" xlink:href="#DejaVuSans-64"/>
     </g>
    </g>
   </g>
   <g id="PolyCollection_1">
    <defs>
     <path d="M 73.832727 -186.754254 
L 73.832727 -114.216881 
L 80.45833 -52.8593 
L 87.083933 -109.251147 
L 93.709536 -75.71423 
L 100.335139 -106.536452 
L 106.960742 -96.391609 
L 113.586345 -142.666502 
L 120.211948 -121.909819 
L 126.837551 -144.906766 
L 133.463154 -107.524778 
L 140.088757 -101.553173 
L 146.71436 -127.869873 
L 153.339963 -110.645199 
L 159.965566 -130.558407 
L 166.591169 -128.108929 
L 173.216772 -143.32407 
L 179.842375 -186.371939 
L 186.467978 -146.766295 
L 193.093581 -151.417115 
L 199.719184 -180.477769 
L 206.344787 -136.83659 
L 212.97039 -145.088174 
L 219.595993 -158.177594 
L 226.221596 -145.502179 
L 232.847199 -128.644763 
L 239.472801 -162.008903 
L 246.098404 -144.31022 
L 252.724007 -129.97058 
L 259.34961 -129.368836 
L 265.975213 -110.761063 
L 272.600816 -152.576792 
L 279.226419 -164.802486 
L 285.852022 -136.846495 
L 292.477625 -132.067537 
L 299.103228 -174.369925 
L 305.728831 -138.839014 
L 312.354434 -93.914572 
L 318.980037 -141.284693 
L 325.60564 -141.106413 
L 332.231243 -135.38289 
L 338.856846 -169.51052 
L 345.482449 -140.845492 
L 352.108052 -129.531427 
L 358.733655 -149.899194 
L 365.359258 -157.737884 
L 371.984861 -122.725381 
L 378.610464 -108.689635 
L 385.236067 -130.041191 
L 391.86167 -158.141877 
L 398.487273 -141.321926 
L 398.487273 -232.619114 
L 398.487273 -232.619114 
L 391.86167 -252.218548 
L 385.236067 -210.987033 
L 378.610464 -175.000098 
L 371.984861 -206.135493 
L 365.359258 -259.54412 
L 358.733655 -245.278964 
L 352.108052 -217.583545 
L 345.482449 -231.530227 
L 338.856846 -259.6704 
L 332.231243 -216.676116 
L 325.60564 -224.286154 
L 318.980037 -236.039335 
L 312.354434 -148.891735 
L 305.728831 -227.854127 
L 299.103228 -276.972512 
L 292.477625 -212.503724 
L 285.852022 -231.727125 
L 279.226419 -265.903514 
L 272.600816 -244.432551 
L 265.975213 -193.117862 
L 259.34961 -217.991208 
L 252.724007 -213.023149 
L 246.098404 -236.079506 
L 239.472801 -247.73189 
L 232.847199 -215.053739 
L 226.221596 -239.756934 
L 219.595993 -254.006914 
L 212.97039 -233.825496 
L 206.344787 -220.488281 
L 199.719184 -282.928138 
L 193.093581 -251.340101 
L 186.467978 -236.672096 
L 179.842375 -292.032 
L 173.216772 -233.467937 
L 166.591169 -216.56914 
L 159.965566 -214.977529 
L 153.339963 -180.724998 
L 146.71436 -210.70922 
L 140.088757 -178.078791 
L 133.463154 -176.827161 
L 126.837551 -239.751885 
L 120.211948 -198.350499 
L 113.586345 -238.597304 
L 106.960742 -160.12552 
L 100.335139 -183.509741 
L 93.709536 -125.175051 
L 87.083933 -192.26802 
L 80.45833 -84.555226 
L 73.832727 -186.754254 
z
" id="mcd2c47c5de" style="stroke:#4c72b0;stroke-opacity:0.2;"/>
    </defs>
    <g clip-path="url(#pdb0c591428)">
     <use style="fill:#4c72b0;fill-opacity:0.2;stroke:#4c72b0;stroke-opacity:0.2;" x="0" xlink:href="#mcd2c47c5de" y="345.6"/>
    </g>
   </g>
   <g id="PolyCollection_2">
    <defs>
     <path d="M 73.832727 -157.056861 
L 73.832727 -100.082346 
L 80.45833 -52.125925 
L 87.083933 -94.328682 
L 93.709536 -62.345062 
L 100.335139 -88.163407 
L 106.960742 -76.576428 
L 113.586345 -113.466465 
L 120.211948 -101.514112 
L 126.837551 -118.906978 
L 133.463154 -90.58749 
L 140.088757 -82.791779 
L 146.71436 -103.261007 
L 153.339963 -86.151685 
L 159.965566 -113.690064 
L 166.591169 -99.456256 
L 173.216772 -117.291782 
L 179.842375 -145.51179 
L 186.467978 -117.268974 
L 193.093581 -111.056883 
L 199.719184 -146.127364 
L 206.344787 -109.585433 
L 212.97039 -100.191436 
L 219.595993 -127.765247 
L 226.221596 -101.12768 
L 232.847199 -107.341028 
L 239.472801 -123.662476 
L 246.098404 -113.106744 
L 252.724007 -103.66716 
L 259.34961 -96.935005 
L 265.975213 -102.408267 
L 272.600816 -125.50492 
L 279.226419 -133.838356 
L 285.852022 -101.125325 
L 292.477625 -99.893529 
L 299.103228 -139.176757 
L 305.728831 -104.421285 
L 312.354434 -81.408091 
L 318.980037 -112.846192 
L 325.60564 -109.657237 
L 332.231243 -113.483953 
L 338.856846 -137.389565 
L 345.482449 -105.805053 
L 352.108052 -100.591261 
L 358.733655 -123.092904 
L 365.359258 -123.366936 
L 371.984861 -93.504327 
L 378.610464 -95.413626 
L 385.236067 -99.364084 
L 391.86167 -114.659635 
L 398.487273 -102.348676 
L 398.487273 -171.247776 
L 398.487273 -171.247776 
L 391.86167 -186.630604 
L 385.236067 -157.727663 
L 378.610464 -156.123384 
L 371.984861 -154.513925 
L 365.359258 -194.730189 
L 358.733655 -202.822943 
L 352.108052 -167.713515 
L 345.482449 -169.650865 
L 338.856846 -219.259018 
L 332.231243 -185.177936 
L 325.60564 -177.38838 
L 318.980037 -182.735929 
L 312.354434 -128.194229 
L 305.728831 -174.562828 
L 299.103228 -226.239946 
L 292.477625 -156.869644 
L 285.852022 -164.415065 
L 279.226419 -212.156288 
L 272.600816 -201.823165 
L 265.975213 -165.858644 
L 259.34961 -160.295258 
L 252.724007 -166.959054 
L 246.098404 -181.541528 
L 239.472801 -197.67805 
L 232.847199 -177.426958 
L 226.221596 -167.109693 
L 219.595993 -200.915155 
L 212.97039 -158.881219 
L 206.344787 -179.022418 
L 199.719184 -226.871631 
L 193.093581 -182.973181 
L 186.467978 -190.230463 
L 179.842375 -230.184492 
L 173.216772 -186.115587 
L 166.591169 -158.102647 
L 159.965566 -184.135402 
L 153.339963 -139.063635 
L 146.71436 -168.634011 
L 140.088757 -141.033829 
L 133.463154 -144.811478 
L 126.837551 -195.336309 
L 120.211948 -164.708699 
L 113.586345 -184.679057 
L 106.960742 -113.918433 
L 100.335139 -155.208631 
L 93.709536 -92.819759 
L 87.083933 -162.466073 
L 80.45833 -80.272711 
L 73.832727 -157.056861 
z
" id="mb4e856bd72" style="stroke:#dd8452;stroke-opacity:0.2;"/>
    </defs>
    <g clip-path="url(#pdb0c591428)">
     <use style="fill:#dd8452;fill-opacity:0.2;stroke:#dd8452;stroke-opacity:0.2;" x="0" xlink:href="#mb4e856bd72" y="345.6"/>
    </g>
   </g>
   <g id="PolyCollection_3">
    <defs>
     <path d="M 73.832727 -142.463357 
L 73.832727 -90.352886 
L 80.45833 -52.121099 
L 87.083933 -79.108009 
L 93.709536 -67.442801 
L 100.335139 -73.436556 
L 106.960742 -82.632723 
L 113.586345 -117.053493 
L 120.211948 -97.979861 
L 126.837551 -103.149663 
L 133.463154 -87.105607 
L 140.088757 -76.288133 
L 146.71436 -101.828501 
L 153.339963 -83.60419 
L 159.965566 -94.696763 
L 166.591169 -96.966507 
L 173.216772 -109.483891 
L 179.842375 -128.485914 
L 186.467978 -108.690952 
L 193.093581 -106.066101 
L 199.719184 -126.179424 
L 206.344787 -100.847956 
L 212.97039 -87.287025 
L 219.595993 -108.529318 
L 226.221596 -98.312066 
L 232.847199 -99.506068 
L 239.472801 -120.316578 
L 246.098404 -99.625142 
L 252.724007 -100.442363 
L 259.34961 -92.871068 
L 265.975213 -85.399787 
L 272.600816 -107.741945 
L 279.226419 -119.817499 
L 285.852022 -92.673027 
L 292.477625 -100.098725 
L 299.103228 -117.275751 
L 305.728831 -94.202748 
L 312.354434 -80.509869 
L 318.980037 -108.678965 
L 325.60564 -108.72761 
L 332.231243 -89.608707 
L 338.856846 -118.980458 
L 345.482449 -103.625621 
L 352.108052 -97.079618 
L 358.733655 -105.523235 
L 365.359258 -111.072905 
L 371.984861 -98.124319 
L 378.610464 -91.930728 
L 385.236067 -92.300585 
L 391.86167 -111.075943 
L 398.487273 -95.928751 
L 398.487273 -154.799767 
L 398.487273 -154.799767 
L 391.86167 -173.271777 
L 385.236067 -141.478029 
L 378.610464 -143.991924 
L 371.984861 -154.497387 
L 365.359258 -165.355083 
L 358.733655 -168.864152 
L 352.108052 -151.848437 
L 345.482449 -169.426658 
L 338.856846 -184.12433 
L 332.231243 -134.650589 
L 325.60564 -170.368907 
L 318.980037 -171.057287 
L 312.354434 -123.088829 
L 305.728831 -144.041377 
L 299.103228 -191.002169 
L 292.477625 -160.423582 
L 285.852022 -144.328508 
L 279.226419 -185.977909 
L 272.600816 -161.627401 
L 265.975213 -133.125116 
L 259.34961 -143.609015 
L 252.724007 -159.854323 
L 246.098404 -156.329418 
L 239.472801 -179.098723 
L 232.847199 -168.258309 
L 226.221596 -156.357271 
L 219.595993 -168.434092 
L 212.97039 -134.573612 
L 206.344787 -162.031226 
L 199.719184 -194.900145 
L 193.093581 -167.021693 
L 186.467978 -171.225212 
L 179.842375 -192.788735 
L 173.216772 -170.767872 
L 166.591169 -153.009679 
L 159.965566 -147.737939 
L 153.339963 -129.201077 
L 146.71436 -167.371924 
L 140.088757 -120.914903 
L 133.463154 -128.630066 
L 126.837551 -164.428208 
L 120.211948 -153.577104 
L 113.586345 -191.092556 
L 106.960742 -127.759305 
L 100.335139 -120.207384 
L 93.709536 -99.390248 
L 87.083933 -137.273003 
L 80.45833 -80.627502 
L 73.832727 -142.463357 
z
" id="m7e6a8620bc" style="stroke:#55a868;stroke-opacity:0.2;"/>
    </defs>
    <g clip-path="url(#pdb0c591428)">
     <use style="fill:#55a868;fill-opacity:0.2;stroke:#55a868;stroke-opacity:0.2;" x="0" xlink:href="#m7e6a8620bc" y="345.6"/>
    </g>
   </g>
   <g id="PolyCollection_4">
    <defs>
     <path d="M 73.832727 -50.112 
L 73.832727 -50.112 
L 80.45833 -50.112 
L 87.083933 -50.112 
L 93.709536 -50.112 
L 100.335139 -50.112 
L 106.960742 -50.112 
L 113.586345 -50.112 
L 120.211948 -50.112 
L 126.837551 -50.112 
L 133.463154 -50.112 
L 140.088757 -50.112 
L 146.71436 -50.112 
L 153.339963 -50.112 
L 159.965566 -50.112 
L 166.591169 -50.112 
L 173.216772 -50.112 
L 179.842375 -50.112 
L 186.467978 -50.112 
L 193.093581 -50.112 
L 199.719184 -50.112 
L 206.344787 -50.112 
L 212.97039 -50.112 
L 219.595993 -50.112 
L 226.221596 -50.112 
L 232.847199 -50.112 
L 239.472801 -50.112 
L 246.098404 -50.112 
L 252.724007 -50.112 
L 259.34961 -50.112 
L 265.975213 -50.112 
L 272.600816 -50.112 
L 279.226419 -50.112 
L 285.852022 -50.112 
L 292.477625 -50.112 
L 299.103228 -50.112 
L 305.728831 -50.112 
L 312.354434 -50.112 
L 318.980037 -50.112 
L 325.60564 -50.112 
L 332.231243 -50.112 
L 338.856846 -50.112 
L 345.482449 -50.112 
L 352.108052 -50.112 
L 358.733655 -50.112 
L 365.359258 -50.112 
L 371.984861 -50.112 
L 378.610464 -50.112 
L 385.236067 -50.112 
L 391.86167 -50.112 
L 398.487273 -50.112 
L 398.487273 -50.112 
L 398.487273 -50.112 
L 391.86167 -50.112 
L 385.236067 -50.126477 
L 378.610464 -50.112 
L 371.984861 -56.139298 
L 365.359258 -74.240467 
L 358.733655 -50.112 
L 352.108052 -50.112 
L 345.482449 -50.112 
L 338.856846 -50.112 
L 332.231243 -50.112 
L 325.60564 -50.112 
L 318.980037 -50.112 
L 312.354434 -53.007416 
L 305.728831 -69.210164 
L 299.103228 -50.112 
L 292.477625 -50.112 
L 285.852022 -50.112 
L 279.226419 -50.112 
L 272.600816 -56.139298 
L 265.975213 -50.112 
L 259.34961 -69.210164 
L 252.724007 -69.219815 
L 246.098404 -50.112 
L 239.472801 -56.139298 
L 232.847199 -50.112 
L 226.221596 -50.112 
L 219.595993 -59.119964 
L 212.97039 -50.112 
L 206.344787 -50.112 
L 199.719184 -58.071546 
L 193.093581 -50.112 
L 186.467978 -50.112 
L 179.842375 -50.112 
L 173.216772 -50.112 
L 166.591169 -50.112 
L 159.965566 -59.721341 
L 153.339963 -50.112 
L 146.71436 -50.112 
L 140.088757 -50.112 
L 133.463154 -69.210164 
L 126.837551 -79.798838 
L 120.211948 -56.139298 
L 113.586345 -50.112 
L 106.960742 -60.157496 
L 100.335139 -58.325306 
L 93.709536 -50.112 
L 87.083933 -50.112 
L 80.45833 -50.112 
L 73.832727 -50.112 
z
" id="m16e8442f37" style="stroke:#c44e52;stroke-opacity:0.2;"/>
    </defs>
    <g clip-path="url(#pdb0c591428)">
     <use style="fill:#c44e52;fill-opacity:0.2;stroke:#c44e52;stroke-opacity:0.2;" x="0" xlink:href="#m16e8442f37" y="345.6"/>
    </g>
   </g>
   <g id="line2d_13">
    <path clip-path="url(#pdb0c591428)" d="M 73.832727 197.068911 
L 80.45833 278.565229 
L 87.083933 199.583672 
L 93.709536 247.389633 
L 100.335139 201.532338 
L 106.960742 218.23376 
L 113.586345 154.716394 
L 120.211948 186.88034 
L 126.837551 156.50113 
L 133.463154 205.150108 
L 140.088757 206.6253 
L 146.71436 178.479023 
L 153.339963 202.552855 
L 159.965566 175.472538 
L 166.591169 174.908954 
L 173.216772 158.685644 
L 179.842375 112.234603 
L 186.467978 157.381996 
L 193.093581 146.976163 
L 199.719184 118.223913 
L 206.344787 166.396758 
L 212.97039 159.120886 
L 219.595993 145.26691 
L 226.221596 153.081034 
L 232.847199 178.129266 
L 239.472801 143.004737 
L 246.098404 157.788712 
L 252.724007 176.296828 
L 259.34961 170.982508 
L 265.975213 195.145051 
L 272.600816 148.474194 
L 279.226419 133.561864 
L 285.852022 163.289061 
L 292.477625 174.958382 
L 299.103228 121.637981 
L 305.728831 166.142529 
L 312.354434 224.586248 
L 318.980037 161.044213 
L 325.60564 163.834836 
L 332.231243 169.520349 
L 338.856846 132.751332 
L 345.482449 160.569143 
L 352.108052 171.987087 
L 358.733655 148.841615 
L 365.359258 140.387835 
L 371.984861 182.540235 
L 378.610464 206.341433 
L 385.236067 175.91174 
L 391.86167 144.272518 
L 398.487273 159.486327 
" style="fill:none;stroke:#4c72b0;stroke-linecap:round;stroke-width:1.5;"/>
   </g>
   <g id="line2d_14">
    <path clip-path="url(#pdb0c591428)" d="M 73.832727 219.027358 
L 80.45833 281.808763 
L 87.083933 218.765826 
L 93.709536 268.460893 
L 100.335139 226.210984 
L 106.960742 251.225151 
L 113.586345 198.014715 
L 120.211948 214.972912 
L 126.837551 191.238023 
L 133.463154 229.614055 
L 140.088757 235.727509 
L 146.71436 211.870227 
L 153.339963 234.900724 
L 159.965566 197.996311 
L 166.591169 219.593659 
L 173.216772 195.622736 
L 179.842375 159.659107 
L 186.467978 191.984459 
L 193.093581 199.767599 
L 199.719184 160.630753 
L 206.344787 203.536867 
L 212.97039 217.652318 
L 219.595993 184.07322 
L 226.221596 213.40263 
L 232.847199 204.830384 
L 239.472801 185.574144 
L 246.098404 202.627395 
L 252.724007 212.49106 
L 259.34961 219.98222 
L 265.975213 214.342267 
L 272.600816 185.165207 
L 279.226419 175.114684 
L 285.852022 214.294055 
L 292.477625 218.696965 
L 299.103228 163.464772 
L 305.728831 209.055229 
L 312.354434 242.437775 
L 318.980037 199.275833 
L 325.60564 204.084295 
L 332.231243 199.436374 
L 338.856846 169.714928 
L 345.482449 208.259892 
L 352.108052 214.4365 
L 358.733655 182.435834 
L 365.359258 189.018241 
L 371.984861 224.260979 
L 378.610464 222.295114 
L 385.236067 218.369742 
L 391.86167 196.859058 
L 398.487273 210.406175 
" style="fill:none;stroke:#dd8452;stroke-linecap:round;stroke-width:1.5;"/>
   </g>
   <g id="line2d_15">
    <path clip-path="url(#pdb0c591428)" d="M 73.832727 230.444956 
L 80.45833 281.145353 
L 87.083933 239.831864 
L 93.709536 264.159831 
L 100.335139 250.914673 
L 106.960742 241.783105 
L 113.586345 191.870693 
L 120.211948 222.017046 
L 126.837551 214.001539 
L 133.463154 239.409523 
L 140.088757 248.849535 
L 146.71436 213.51827 
L 153.339963 240.106968 
L 159.965566 225.831886 
L 166.591169 222.299229 
L 173.216772 206.558753 
L 179.842375 186.148992 
L 186.467978 207.026865 
L 193.093581 211.237613 
L 199.719184 186.680132 
L 206.344787 214.158218 
L 212.97039 235.209589 
L 219.595993 207.514243 
L 226.221596 219.077273 
L 232.847199 213.209207 
L 239.472801 198.613147 
L 246.098404 220.143972 
L 252.724007 217.185841 
L 259.34961 229.777688 
L 265.975213 237.783289 
L 272.600816 212.355134 
L 279.226419 194.500479 
L 285.852022 229.090627 
L 292.477625 217.527789 
L 299.103228 193.403333 
L 305.728831 227.629333 
L 312.354434 244.112321 
L 318.980037 206.268273 
L 325.60564 208.779076 
L 332.231243 233.596206 
L 338.856846 194.70678 
L 345.482449 211.006156 
L 352.108052 222.240631 
L 358.733655 212.045538 
L 365.359258 209.266891 
L 371.984861 220.576937 
L 378.610464 230.016223 
L 385.236067 230.168613 
L 391.86167 204.965544 
L 398.487273 222.470674 
" style="fill:none;stroke:#55a868;stroke-linecap:round;stroke-width:1.5;"/>
   </g>
   <g id="line2d_16">
    <path clip-path="url(#pdb0c591428)" d="M 73.832727 295.488 
L 80.45833 295.488 
L 87.083933 295.488 
L 93.709536 295.488 
L 100.335139 292.750231 
L 106.960742 291.469801 
L 113.586345 295.488 
L 120.211948 293.478901 
L 126.837551 283.470369 
L 133.463154 289.121945 
L 140.088757 295.488 
L 146.71436 295.488 
L 153.339963 295.488 
L 159.965566 291.687879 
L 166.591169 295.488 
L 173.216772 295.488 
L 179.842375 295.488 
L 186.467978 295.488 
L 193.093581 295.488 
L 199.719184 292.513762 
L 206.344787 295.488 
L 212.97039 295.488 
L 219.595993 292.27087 
L 226.221596 295.488 
L 232.847199 295.488 
L 239.472801 293.478901 
L 246.098404 295.488 
L 252.724007 289.11712 
L 259.34961 289.121945 
L 265.975213 295.488 
L 272.600816 293.478901 
L 279.226419 295.488 
L 285.852022 295.488 
L 292.477625 295.488 
L 299.103228 295.488 
L 305.728831 289.121945 
L 312.354434 294.522861 
L 318.980037 295.488 
L 325.60564 295.488 
L 332.231243 295.488 
L 338.856846 295.488 
L 345.482449 295.488 
L 352.108052 295.488 
L 358.733655 295.488 
L 365.359258 285.836613 
L 371.984861 293.478901 
L 378.610464 295.488 
L 385.236067 295.483174 
L 391.86167 295.488 
L 398.487273 295.488 
" style="fill:none;stroke:#c44e52;stroke-linecap:round;stroke-width:1.5;"/>
   </g>
   <g id="line2d_17"/>
   <g id="line2d_18"/>
   <g id="line2d_19"/>
   <g id="line2d_20"/>
   <g id="patch_3">
    <path d="M 57.6 307.584 
L 57.6 41.472 
" style="fill:none;stroke:#ffffff;stroke-linecap:square;stroke-linejoin:miter;stroke-width:1.25;"/>
   </g>
   <g id="patch_4">
    <path d="M 414.72 307.584 
L 414.72 41.472 
" style="fill:none;stroke:#ffffff;stroke-linecap:square;stroke-linejoin:miter;stroke-width:1.25;"/>
   </g>
   <g id="patch_5">
    <path d="M 57.6 307.584 
L 414.72 307.584 
" style="fill:none;stroke:#ffffff;stroke-linecap:square;stroke-linejoin:miter;stroke-width:1.25;"/>
   </g>
   <g id="patch_6">
    <path d="M 57.6 41.472 
L 414.72 41.472 
" style="fill:none;stroke:#ffffff;stroke-linecap:square;stroke-linejoin:miter;stroke-width:1.25;"/>
   </g>
   <g id="text_15">
    <!-- Transport -->
    <g style="fill:#262626;" transform="translate(208.009687 35.472)scale(0.12 -0.12)">
     <defs>
      <path d="M 3513 2113 
L 3513 0 
L 2938 0 
L 2938 2094 
Q 2938 2591 2744 2837 
Q 2550 3084 2163 3084 
Q 1697 3084 1428 2787 
Q 1159 2491 1159 1978 
L 1159 0 
L 581 0 
L 581 3500 
L 1159 3500 
L 1159 2956 
Q 1366 3272 1645 3428 
Q 1925 3584 2291 3584 
Q 2894 3584 3203 3211 
Q 3513 2838 3513 2113 
z
" id="DejaVuSans-6e" transform="scale(0.015625)"/>
      <path d="M 1959 3097 
Q 1497 3097 1228 2736 
Q 959 2375 959 1747 
Q 959 1119 1226 758 
Q 1494 397 1959 397 
Q 2419 397 2687 759 
Q 2956 1122 2956 1747 
Q 2956 2369 2687 2733 
Q 2419 3097 1959 3097 
z
M 1959 3584 
Q 2709 3584 3137 3096 
Q 3566 2609 3566 1747 
Q 3566 888 3137 398 
Q 2709 -91 1959 -91 
Q 1206 -91 779 398 
Q 353 888 353 1747 
Q 353 2609 779 3096 
Q 1206 3584 1959 3584 
z
" id="DejaVuSans-6f" transform="scale(0.015625)"/>
     </defs>
     <use xlink:href="#DejaVuSans-54"/>
     <use x="46.333984" xlink:href="#DejaVuSans-72"/>
     <use x="87.447266" xlink:href="#DejaVuSans-61"/>
     <use x="148.726562" xlink:href="#DejaVuSans-6e"/>
     <use x="212.105469" xlink:href="#DejaVuSans-73"/>
     <use x="264.205078" xlink:href="#DejaVuSans-70"/>
     <use x="327.681641" xlink:href="#DejaVuSans-6f"/>
     <use x="388.863281" xlink:href="#DejaVuSans-72"/>
     <use x="429.976562" xlink:href="#DejaVuSans-74"/>
    </g>
   </g>
   <g id="legend_1">
    <g id="patch_7">
     <path d="M 219.860156 114.85575 
L 407.02 114.85575 
Q 409.22 114.85575 409.22 112.65575 
L 409.22 49.172 
Q 409.22 46.972 407.02 46.972 
L 219.860156 46.972 
Q 217.660156 46.972 217.660156 49.172 
L 217.660156 112.65575 
Q 217.660156 114.85575 219.860156 114.85575 
z
" style="fill:#eaeaf2;opacity:0.8;stroke:#cccccc;stroke-linejoin:miter;"/>
    </g>
    <g id="patch_8">
     <path d="M 222.060156 59.730281 
L 244.060156 59.730281 
L 244.060156 52.030281 
L 222.060156 52.030281 
z
" style="fill:#4c72b0;stroke:#4c72b0;stroke-linejoin:miter;"/>
    </g>
    <g id="text_16">
     <!-- BCFC (ours) -->
     <g style="fill:#262626;" transform="translate(252.860156 59.730281)scale(0.11 -0.11)">
      <defs>
       <path d="M 1259 2228 
L 1259 519 
L 2272 519 
Q 2781 519 3026 730 
Q 3272 941 3272 1375 
Q 3272 1813 3026 2020 
Q 2781 2228 2272 2228 
L 1259 2228 
z
M 1259 4147 
L 1259 2741 
L 2194 2741 
Q 2656 2741 2882 2914 
Q 3109 3088 3109 3444 
Q 3109 3797 2882 3972 
Q 2656 4147 2194 4147 
L 1259 4147 
z
M 628 4666 
L 2241 4666 
Q 2963 4666 3353 4366 
Q 3744 4066 3744 3513 
Q 3744 3084 3544 2831 
Q 3344 2578 2956 2516 
Q 3422 2416 3680 2098 
Q 3938 1781 3938 1306 
Q 3938 681 3513 340 
Q 3088 0 2303 0 
L 628 0 
L 628 4666 
z
" id="DejaVuSans-42" transform="scale(0.015625)"/>
       <path d="M 4122 4306 
L 4122 3641 
Q 3803 3938 3442 4084 
Q 3081 4231 2675 4231 
Q 1875 4231 1450 3742 
Q 1025 3253 1025 2328 
Q 1025 1406 1450 917 
Q 1875 428 2675 428 
Q 3081 428 3442 575 
Q 3803 722 4122 1019 
L 4122 359 
Q 3791 134 3420 21 
Q 3050 -91 2638 -91 
Q 1578 -91 968 557 
Q 359 1206 359 2328 
Q 359 3453 968 4101 
Q 1578 4750 2638 4750 
Q 3056 4750 3426 4639 
Q 3797 4528 4122 4306 
z
" id="DejaVuSans-43" transform="scale(0.015625)"/>
       <path d="M 628 4666 
L 3309 4666 
L 3309 4134 
L 1259 4134 
L 1259 2759 
L 3109 2759 
L 3109 2228 
L 1259 2228 
L 1259 0 
L 628 0 
L 628 4666 
z
" id="DejaVuSans-46" transform="scale(0.015625)"/>
       <path d="M 1984 4856 
Q 1566 4138 1362 3434 
Q 1159 2731 1159 2009 
Q 1159 1288 1364 580 
Q 1569 -128 1984 -844 
L 1484 -844 
Q 1016 -109 783 600 
Q 550 1309 550 2009 
Q 550 2706 781 3412 
Q 1013 4119 1484 4856 
L 1984 4856 
z
" id="DejaVuSans-28" transform="scale(0.015625)"/>
       <path d="M 544 1381 
L 544 3500 
L 1119 3500 
L 1119 1403 
Q 1119 906 1312 657 
Q 1506 409 1894 409 
Q 2359 409 2629 706 
Q 2900 1003 2900 1516 
L 2900 3500 
L 3475 3500 
L 3475 0 
L 2900 0 
L 2900 538 
Q 2691 219 2414 64 
Q 2138 -91 1772 -91 
Q 1169 -91 856 284 
Q 544 659 544 1381 
z
M 1991 3584 
L 1991 3584 
z
" id="DejaVuSans-75" transform="scale(0.015625)"/>
       <path d="M 513 4856 
L 1013 4856 
Q 1481 4119 1714 3412 
Q 1947 2706 1947 2009 
Q 1947 1309 1714 600 
Q 1481 -109 1013 -844 
L 513 -844 
Q 928 -128 1133 580 
Q 1338 1288 1338 2009 
Q 1338 2731 1133 3434 
Q 928 4138 513 4856 
z
" id="DejaVuSans-29" transform="scale(0.015625)"/>
      </defs>
      <use xlink:href="#DejaVuSans-42"/>
      <use x="66.853516" xlink:href="#DejaVuSans-43"/>
      <use x="136.677734" xlink:href="#DejaVuSans-46"/>
      <use x="194.197266" xlink:href="#DejaVuSans-43"/>
      <use x="264.021484" xlink:href="#DejaVuSans-20"/>
      <use x="295.808594" xlink:href="#DejaVuSans-28"/>
      <use x="334.822266" xlink:href="#DejaVuSans-6f"/>
      <use x="396.003906" xlink:href="#DejaVuSans-75"/>
      <use x="459.382812" xlink:href="#DejaVuSans-72"/>
      <use x="500.496094" xlink:href="#DejaVuSans-73"/>
      <use x="552.595703" xlink:href="#DejaVuSans-29"/>
     </g>
    </g>
    <g id="patch_9">
     <path d="M 222.060156 75.876219 
L 244.060156 75.876219 
L 244.060156 68.176219 
L 222.060156 68.176219 
z
" style="fill:#dd8452;stroke:#dd8452;stroke-linejoin:miter;"/>
    </g>
    <g id="text_17">
     <!-- Location-based Assignment -->
     <g style="fill:#262626;" transform="translate(252.860156 75.876219)scale(0.11 -0.11)">
      <defs>
       <path d="M 628 4666 
L 1259 4666 
L 1259 531 
L 3531 531 
L 3531 0 
L 628 0 
L 628 4666 
z
" id="DejaVuSans-4c" transform="scale(0.015625)"/>
       <path d="M 3122 3366 
L 3122 2828 
Q 2878 2963 2633 3030 
Q 2388 3097 2138 3097 
Q 1578 3097 1268 2742 
Q 959 2388 959 1747 
Q 959 1106 1268 751 
Q 1578 397 2138 397 
Q 2388 397 2633 464 
Q 2878 531 3122 666 
L 3122 134 
Q 2881 22 2623 -34 
Q 2366 -91 2075 -91 
Q 1284 -91 818 406 
Q 353 903 353 1747 
Q 353 2603 823 3093 
Q 1294 3584 2113 3584 
Q 2378 3584 2631 3529 
Q 2884 3475 3122 3366 
z
" id="DejaVuSans-63" transform="scale(0.015625)"/>
       <path d="M 313 2009 
L 1997 2009 
L 1997 1497 
L 313 1497 
L 313 2009 
z
" id="DejaVuSans-2d" transform="scale(0.015625)"/>
       <path d="M 3116 1747 
Q 3116 2381 2855 2742 
Q 2594 3103 2138 3103 
Q 1681 3103 1420 2742 
Q 1159 2381 1159 1747 
Q 1159 1113 1420 752 
Q 1681 391 2138 391 
Q 2594 391 2855 752 
Q 3116 1113 3116 1747 
z
M 1159 2969 
Q 1341 3281 1617 3432 
Q 1894 3584 2278 3584 
Q 2916 3584 3314 3078 
Q 3713 2572 3713 1747 
Q 3713 922 3314 415 
Q 2916 -91 2278 -91 
Q 1894 -91 1617 61 
Q 1341 213 1159 525 
L 1159 0 
L 581 0 
L 581 4863 
L 1159 4863 
L 1159 2969 
z
" id="DejaVuSans-62" transform="scale(0.015625)"/>
       <path d="M 2188 4044 
L 1331 1722 
L 3047 1722 
L 2188 4044 
z
M 1831 4666 
L 2547 4666 
L 4325 0 
L 3669 0 
L 3244 1197 
L 1141 1197 
L 716 0 
L 50 0 
L 1831 4666 
z
" id="DejaVuSans-41" transform="scale(0.015625)"/>
       <path d="M 2906 1791 
Q 2906 2416 2648 2759 
Q 2391 3103 1925 3103 
Q 1463 3103 1205 2759 
Q 947 2416 947 1791 
Q 947 1169 1205 825 
Q 1463 481 1925 481 
Q 2391 481 2648 825 
Q 2906 1169 2906 1791 
z
M 3481 434 
Q 3481 -459 3084 -895 
Q 2688 -1331 1869 -1331 
Q 1566 -1331 1297 -1286 
Q 1028 -1241 775 -1147 
L 775 -588 
Q 1028 -725 1275 -790 
Q 1522 -856 1778 -856 
Q 2344 -856 2625 -561 
Q 2906 -266 2906 331 
L 2906 616 
Q 2728 306 2450 153 
Q 2172 0 1784 0 
Q 1141 0 747 490 
Q 353 981 353 1791 
Q 353 2603 747 3093 
Q 1141 3584 1784 3584 
Q 2172 3584 2450 3431 
Q 2728 3278 2906 2969 
L 2906 3500 
L 3481 3500 
L 3481 434 
z
" id="DejaVuSans-67" transform="scale(0.015625)"/>
      </defs>
      <use xlink:href="#DejaVuSans-4c"/>
      <use x="53.962891" xlink:href="#DejaVuSans-6f"/>
      <use x="115.144531" xlink:href="#DejaVuSans-63"/>
      <use x="170.125" xlink:href="#DejaVuSans-61"/>
      <use x="231.404297" xlink:href="#DejaVuSans-74"/>
      <use x="270.613281" xlink:href="#DejaVuSans-69"/>
      <use x="298.396484" xlink:href="#DejaVuSans-6f"/>
      <use x="359.578125" xlink:href="#DejaVuSans-6e"/>
      <use x="422.957031" xlink:href="#DejaVuSans-2d"/>
      <use x="459.041016" xlink:href="#DejaVuSans-62"/>
      <use x="522.517578" xlink:href="#DejaVuSans-61"/>
      <use x="583.796875" xlink:href="#DejaVuSans-73"/>
      <use x="635.896484" xlink:href="#DejaVuSans-65"/>
      <use x="697.419922" xlink:href="#DejaVuSans-64"/>
      <use x="760.896484" xlink:href="#DejaVuSans-20"/>
      <use x="792.683594" xlink:href="#DejaVuSans-41"/>
      <use x="861.091797" xlink:href="#DejaVuSans-73"/>
      <use x="913.191406" xlink:href="#DejaVuSans-73"/>
      <use x="965.291016" xlink:href="#DejaVuSans-69"/>
      <use x="993.074219" xlink:href="#DejaVuSans-67"/>
      <use x="1056.550781" xlink:href="#DejaVuSans-6e"/>
      <use x="1119.929688" xlink:href="#DejaVuSans-6d"/>
      <use x="1217.341797" xlink:href="#DejaVuSans-65"/>
      <use x="1278.865234" xlink:href="#DejaVuSans-6e"/>
      <use x="1342.244141" xlink:href="#DejaVuSans-74"/>
     </g>
    </g>
    <g id="patch_10">
     <path d="M 222.060156 92.022156 
L 244.060156 92.022156 
L 244.060156 84.322156 
L 222.060156 84.322156 
z
" style="fill:#55a868;stroke:#55a868;stroke-linejoin:miter;"/>
    </g>
    <g id="text_18">
     <!-- Uniform Assignment -->
     <g style="fill:#262626;" transform="translate(252.860156 92.022156)scale(0.11 -0.11)">
      <defs>
       <path d="M 556 4666 
L 1191 4666 
L 1191 1831 
Q 1191 1081 1462 751 
Q 1734 422 2344 422 
Q 2950 422 3222 751 
Q 3494 1081 3494 1831 
L 3494 4666 
L 4128 4666 
L 4128 1753 
Q 4128 841 3676 375 
Q 3225 -91 2344 -91 
Q 1459 -91 1007 375 
Q 556 841 556 1753 
L 556 4666 
z
" id="DejaVuSans-55" transform="scale(0.015625)"/>
       <path d="M 2375 4863 
L 2375 4384 
L 1825 4384 
Q 1516 4384 1395 4259 
Q 1275 4134 1275 3809 
L 1275 3500 
L 2222 3500 
L 2222 3053 
L 1275 3053 
L 1275 0 
L 697 0 
L 697 3053 
L 147 3053 
L 147 3500 
L 697 3500 
L 697 3744 
Q 697 4328 969 4595 
Q 1241 4863 1831 4863 
L 2375 4863 
z
" id="DejaVuSans-66" transform="scale(0.015625)"/>
      </defs>
      <use xlink:href="#DejaVuSans-55"/>
      <use x="73.193359" xlink:href="#DejaVuSans-6e"/>
      <use x="136.572266" xlink:href="#DejaVuSans-69"/>
      <use x="164.355469" xlink:href="#DejaVuSans-66"/>
      <use x="199.560547" xlink:href="#DejaVuSans-6f"/>
      <use x="260.742188" xlink:href="#DejaVuSans-72"/>
      <use x="300.105469" xlink:href="#DejaVuSans-6d"/>
      <use x="397.517578" xlink:href="#DejaVuSans-20"/>
      <use x="429.304688" xlink:href="#DejaVuSans-41"/>
      <use x="497.712891" xlink:href="#DejaVuSans-73"/>
      <use x="549.8125" xlink:href="#DejaVuSans-73"/>
      <use x="601.912109" xlink:href="#DejaVuSans-69"/>
      <use x="629.695312" xlink:href="#DejaVuSans-67"/>
      <use x="693.171875" xlink:href="#DejaVuSans-6e"/>
      <use x="756.550781" xlink:href="#DejaVuSans-6d"/>
      <use x="853.962891" xlink:href="#DejaVuSans-65"/>
      <use x="915.486328" xlink:href="#DejaVuSans-6e"/>
      <use x="978.865234" xlink:href="#DejaVuSans-74"/>
     </g>
    </g>
    <g id="patch_11">
     <path d="M 222.060156 108.168094 
L 244.060156 108.168094 
L 244.060156 100.468094 
L 222.060156 100.468094 
z
" style="fill:#c44e52;stroke:#c44e52;stroke-linejoin:miter;"/>
    </g>
    <g id="text_19">
     <!-- Monolithic -->
     <g style="fill:#262626;" transform="translate(252.860156 108.168094)scale(0.11 -0.11)">
      <defs>
       <path d="M 628 4666 
L 1569 4666 
L 2759 1491 
L 3956 4666 
L 4897 4666 
L 4897 0 
L 4281 0 
L 4281 4097 
L 3078 897 
L 2444 897 
L 1241 4097 
L 1241 0 
L 628 0 
L 628 4666 
z
" id="DejaVuSans-4d" transform="scale(0.015625)"/>
       <path d="M 603 4863 
L 1178 4863 
L 1178 0 
L 603 0 
L 603 4863 
z
" id="DejaVuSans-6c" transform="scale(0.015625)"/>
       <path d="M 3513 2113 
L 3513 0 
L 2938 0 
L 2938 2094 
Q 2938 2591 2744 2837 
Q 2550 3084 2163 3084 
Q 1697 3084 1428 2787 
Q 1159 2491 1159 1978 
L 1159 0 
L 581 0 
L 581 4863 
L 1159 4863 
L 1159 2956 
Q 1366 3272 1645 3428 
Q 1925 3584 2291 3584 
Q 2894 3584 3203 3211 
Q 3513 2838 3513 2113 
z
" id="DejaVuSans-68" transform="scale(0.015625)"/>
      </defs>
      <use xlink:href="#DejaVuSans-4d"/>
      <use x="86.279297" xlink:href="#DejaVuSans-6f"/>
      <use x="147.460938" xlink:href="#DejaVuSans-6e"/>
      <use x="210.839844" xlink:href="#DejaVuSans-6f"/>
      <use x="272.021484" xlink:href="#DejaVuSans-6c"/>
      <use x="299.804688" xlink:href="#DejaVuSans-69"/>
      <use x="327.587891" xlink:href="#DejaVuSans-74"/>
      <use x="366.796875" xlink:href="#DejaVuSans-68"/>
      <use x="430.175781" xlink:href="#DejaVuSans-69"/>
      <use x="457.958984" xlink:href="#DejaVuSans-63"/>
     </g>
    </g>
   </g>
  </g>
 </g>
 <defs>
  <clipPath id="pdb0c591428">
   <rect height="266.112" width="357.12" x="57.6" y="41.472"/>
  </clipPath>
 </defs>
</svg>
